<?xml version="1.0" standalone="no"?>
<!DOCTYPE svg PUBLIC "-//W3C//DTD SVG 20010904//EN"
 "http://www.w3.org/TR/2001/REC-SVG-20010904/DTD/svg10.dtd">
<svg version="1.0" xmlns="http://www.w3.org/2000/svg"
 width="1280.000000pt" height="1280.000000pt" viewBox="0 0 1280.000000 1280.000000"
 preserveAspectRatio="xMidYMid meet">
<metadata>
Created by potrace 1.14, written by Peter Selinger 2001-2017
</metadata>
<g transform="translate(0.000000,1280.000000) scale(0.100000,-0.100000)"
fill="#000000" stroke="none">
<path d="M8423 9581 c-12 -11 -24 -17 -27 -14 -3 4 -6 1 -6 -5 0 -7 5 -12 10
-12 6 0 10 -7 10 -16 0 -8 5 -12 10 -9 6 4 8 11 5 16 -4 5 1 9 9 9 10 0 13 6
9 17 -4 10 -2 14 4 10 6 -4 13 0 17 8 8 21 -16 19 -41 -4z"/>
<path d="M8035 9459 c-38 -31 -33 -116 8 -138 58 -31 130 -15 135 29 1 14 3
30 4 36 1 6 10 16 20 23 14 9 17 8 16 -1 -2 -7 7 -14 20 -16 12 -2 22 1 22 7
0 6 8 7 17 4 12 -5 15 -2 11 8 -4 11 0 15 14 15 32 -1 33 23 2 34 -20 8 -29 8
-34 -1 -6 -8 -9 -8 -12 1 -2 8 -13 9 -38 3 -19 -5 -51 -6 -70 -2 -80 18 -89
18 -115 -2z"/>
<path d="M7307 9349 c7 -7 15 -10 18 -7 3 3 -2 9 -12 12 -14 6 -15 5 -6 -5z"/>
<path d="M8035 9255 c-42 -20 -155 -55 -177 -55 -10 0 -18 -5 -18 -11 0 -7
-11 -9 -27 -6 -31 6 -107 -28 -137 -62 -17 -18 -17 -21 -3 -15 9 3 17 10 17
15 0 5 9 9 20 9 11 0 20 4 20 9 0 7 38 20 75 26 6 1 24 5 40 8 17 4 41 10 55
12 14 3 36 7 50 11 35 8 109 23 145 30 41 7 41 10 6 28 -36 19 -29 19 -66 1z"/>
<path d="M8101 9266 c2 -2 15 -9 29 -16 23 -12 24 -12 11 3 -7 10 -20 17 -29
17 -8 0 -13 -2 -11 -4z"/>
<path d="M9042 9254 c-11 -12 -10 -15 2 -20 24 -9 36 -1 23 17 -10 14 -14 14
-25 3z"/>
<path d="M9005 9240 c-3 -5 -1 -10 4 -10 6 0 11 5 11 10 0 6 -2 10 -4 10 -3 0
-8 -4 -11 -10z"/>
<path d="M7570 9200 c-8 -5 -10 -10 -5 -10 6 0 17 5 25 10 8 5 11 10 5 10 -5
0 -17 -5 -25 -10z"/>
<path d="M7810 9199 c0 -5 5 -7 10 -4 6 3 10 8 10 11 0 2 -4 4 -10 4 -5 0 -10
-5 -10 -11z"/>
<path d="M7488 9168 c-16 -5 -28 -14 -28 -19 0 -5 14 -3 30 6 17 9 30 18 30
20 0 3 -1 5 -2 4 -2 0 -15 -5 -30 -11z"/>
<path d="M8249 9163 c-12 -9 -19 -11 -15 -5 8 13 -28 12 -40 -1 -4 -4 -14 -2
-21 5 -11 9 -16 9 -23 -1 -5 -8 -16 -11 -30 -6 -15 5 -20 4 -16 -4 11 -16 -44
-27 -55 -10 -8 12 -11 12 -19 -1 -9 -13 -11 -13 -20 0 -8 12 -10 12 -10 -5 0
-11 -4 -15 -8 -10 -4 6 -13 10 -19 9 -7 -1 -24 -2 -38 -3 -15 0 -25 -7 -25
-16 0 -8 -9 -15 -20 -15 -28 0 -24 1 -82 -17 -29 -8 -60 -17 -68 -18 -8 -2
-17 -4 -20 -5 -3 -1 -8 -2 -12 -1 -5 0 -8 -3 -8 -8 0 -4 -108 -9 -241 -10
-185 -2 -245 1 -257 11 -13 11 -14 11 -8 0 6 -11 -1 -13 -30 -12 -22 1 -650 2
-1396 1 l-1358 -1 0 -448 c0 -247 -3 -451 -6 -455 -3 -3 -18 -1 -32 4 -15 6
-23 7 -19 3 11 -11 -13 -34 -37 -34 -12 0 -32 -7 -44 -16 -12 -8 -22 -12 -22
-8 0 3 -6 1 -13 -5 -8 -6 -17 -8 -20 -5 -3 4 -5 -3 -4 -14 0 -11 5 -18 9 -16
4 3 8 -2 8 -11 0 -10 -5 -13 -13 -9 -6 4 -8 3 -4 -1 12 -14 38 -15 30 -2 -4 7
1 6 10 -2 14 -11 17 -11 17 0 0 12 2 12 9 0 11 -17 32 -5 25 14 -6 14 7 14 37
1 9 -4 28 -5 42 -2 26 5 27 3 27 -44 0 -52 -9 -61 -53 -53 -17 3 -27 1 -27 -6
0 -7 -4 -9 -10 -6 -5 3 -10 1 -10 -4 0 -6 -18 -14 -40 -17 -22 -4 -40 -11 -40
-16 0 -5 -13 -8 -28 -7 -29 3 -53 -13 -65 -41 -4 -12 -6 -11 -6 3 -1 16 -21
25 -21 9 0 -5 -7 -17 -16 -28 -8 -10 -13 -13 -9 -6 9 18 -6 15 -73 -18 -34
-16 -69 -30 -77 -30 -8 0 -15 -4 -15 -9 0 -5 -10 -7 -22 -3 -16 4 -19 2 -13
-9 8 -12 6 -12 -8 0 -15 12 -17 11 -17 -3 0 -10 -4 -15 -9 -11 -15 8 -61 -16
-54 -29 4 -6 -5 -3 -20 7 -23 15 -27 15 -27 2 0 -8 -11 -17 -25 -21 -14 -3
-23 -9 -21 -13 3 -4 -7 -7 -22 -6 -15 0 -42 -7 -60 -17 -18 -10 -37 -16 -43
-13 -5 4 -9 2 -9 -3 0 -5 -6 -9 -12 -10 -7 -1 -24 -3 -38 -4 -14 -2 -28 -11
-32 -21 -5 -11 -13 -15 -19 -11 -7 4 -9 3 -6 -3 4 -6 18 -8 32 -6 13 3 32 2
42 -1 15 -6 15 -9 3 -17 -12 -9 -12 -10 3 -5 10 3 22 6 27 6 5 0 10 8 12 17 3
19 38 25 50 9 7 -11 40 12 34 23 -2 3 9 6 24 6 15 0 26 -3 23 -7 -2 -5 1 -8 6
-8 6 0 11 4 11 8 0 13 50 33 62 26 7 -4 8 -2 4 4 -4 7 3 14 19 18 13 3 23 9
21 13 -3 4 13 7 34 8 22 1 57 14 86 32 52 32 75 32 34 1 -30 -24 -20 -26 21
-5 16 9 34 13 39 10 6 -3 10 -1 10 4 0 6 7 11 16 11 8 0 13 4 10 9 -3 4 14 14
37 21 23 8 50 20 59 28 10 8 31 15 48 14 16 0 30 4 30 9 0 6 7 6 18 0 14 -8
23 -5 38 12 10 12 17 29 16 37 -2 13 0 12 10 -1 9 -11 19 -14 33 -8 34 13 36
11 34 -51 -2 -63 -4 -65 -56 -60 -27 2 -29 -8 -8 -36 13 -18 14 -18 9 6 -4 18
-3 21 4 11 7 -9 12 -10 16 -2 4 6 14 11 22 11 17 0 20 -55 2 -66 -7 -4 -8 -3
-4 4 4 7 2 12 -3 12 -6 0 -11 -6 -11 -13 0 -16 -41 -42 -62 -38 -10 1 -18 -2
-18 -7 0 -6 -14 -8 -31 -5 -23 3 -36 -1 -54 -21 -12 -13 -20 -28 -16 -32 3 -4
-3 -2 -14 4 -15 7 -25 7 -40 -4 -18 -13 -18 -14 6 -14 21 -1 20 -3 -11 -16
-32 -14 -36 -14 -47 2 -7 10 -14 14 -14 8 -1 -5 -2 -13 -4 -19 -1 -5 -3 -14
-3 -18 -1 -4 -11 -3 -22 3 -12 7 -17 16 -13 28 3 9 4 15 2 12 -31 -37 -42 -53
-28 -42 13 10 19 10 28 -1 8 -11 5 -16 -15 -25 -14 -7 -22 -17 -18 -23 3 -6
-6 -3 -21 7 -25 16 -28 16 -36 2 -5 -9 -23 -19 -39 -23 -16 -4 -33 -11 -36
-17 -4 -7 -2 -8 4 -4 7 4 12 3 12 -3 0 -6 -12 -18 -28 -28 -15 -10 -29 -20
-32 -24 -24 -29 -214 -98 -320 -115 -52 -9 -71 -15 -66 -23 3 -4 0 -8 -7 -9
-7 -1 -25 -3 -42 -6 -59 -7 -91 -30 -86 -60 1 -5 -4 -4 -11 2 -16 13 -52 -2
-89 -37 -13 -12 -31 -21 -40 -21 -10 0 -20 -3 -22 -7 -3 -5 19 -9 49 -9 30 -1
54 2 54 6 0 5 9 6 20 3 17 -5 17 -7 5 -20 -18 -18 -20 -29 -2 -15 20 16 74 24
82 13 3 -6 3 -11 -2 -12 -58 -5 -68 -21 -13 -19 75 3 76 2 44 -30 -30 -30 -51
-40 -38 -17 4 6 -3 2 -15 -11 -12 -12 -27 -19 -33 -16 -6 4 -8 3 -5 -3 4 -6
-1 -17 -10 -24 -14 -12 -16 -12 -9 1 4 8 -6 0 -22 -17 -15 -18 -36 -33 -45
-33 -9 0 -18 -4 -22 -9 -5 -10 55 -5 85 6 8 3 24 8 35 10 11 2 38 12 61 23 22
11 46 20 52 20 7 0 29 7 50 16 20 8 39 14 41 14 2 -1 7 4 11 10 5 8 9 6 14 -6
4 -10 4 -15 0 -11 -4 4 -17 -1 -28 -12 -12 -10 -34 -21 -51 -24 -44 -8 -155
-59 -149 -69 3 -4 -1 -5 -8 -3 -8 3 -29 -6 -48 -20 -19 -14 -39 -25 -46 -25
-7 0 -14 -4 -16 -8 -4 -9 -138 -91 -188 -114 -19 -9 -57 -26 -83 -37 -27 -12
-46 -25 -42 -30 6 -11 -22 -29 -52 -34 -10 -1 -29 -11 -43 -21 l-25 -18 24 5
c16 4 29 0 37 -11 17 -24 -1 -42 -42 -42 -39 0 -57 -20 -20 -21 14 -1 37 -1
50 -2 13 -1 31 5 39 12 13 10 17 9 26 -7 8 -16 5 -25 -14 -48 -29 -34 -19 -44
37 -37 23 3 35 9 31 16 -3 6 -1 7 6 3 6 -4 45 11 86 33 42 22 82 38 90 35 8
-3 31 7 51 22 23 18 50 29 73 29 40 2 69 12 89 32 7 7 18 13 23 13 13 0 11
-17 -2 -26 -8 -4 -7 -9 2 -15 11 -6 9 -13 -9 -32 -24 -25 -28 -37 -12 -37 6 0
10 5 10 10 0 6 10 24 21 39 12 16 18 34 15 40 -5 7 -1 9 8 5 9 -3 16 -12 16
-19 0 -12 11 -13 63 -6 5 0 6 4 4 9 -3 4 8 7 24 7 27 1 29 -2 25 -31 l-3 -32
36 22 c39 25 66 33 133 41 49 6 98 20 145 41 17 8 36 14 41 14 6 0 43 15 84
34 73 34 215 82 232 77 16 -4 192 88 216 114 13 14 30 25 37 25 8 0 12 4 9 9
-4 5 4 7 16 3 16 -4 19 -2 13 9 -5 8 -5 11 0 7 4 -4 16 -3 27 3 22 12 83 21
73 11 -4 -4 -10 -7 -13 -7 -20 -2 -52 -18 -52 -26 0 -6 -4 -8 -9 -5 -5 4 -7
-3 -4 -14 4 -14 0 -20 -10 -20 -21 0 -31 17 -15 24 7 3 2 3 -12 0 -14 -4 -34
-13 -45 -20 -17 -12 -17 -14 -2 -14 9 0 17 5 17 10 0 6 7 10 15 10 8 0 15 -5
15 -11 0 -7 12 -9 30 -7 17 3 33 1 36 -3 7 -12 -18 -23 -48 -21 -15 1 -28 -2
-28 -7 0 -14 25 -20 41 -10 22 14 26 11 25 -21 -1 -16 -4 -30 -8 -30 -4 0 -21
-13 -38 -30 -17 -16 -26 -30 -20 -30 20 0 92 69 84 82 -3 4 1 5 9 2 9 -3 13
-13 9 -26 -5 -20 -5 -20 23 -2 29 19 32 20 107 27 69 6 51 -22 -34 -53 -16 -5
-28 -14 -28 -19 0 -4 -10 -9 -22 -9 -13 0 -47 -13 -76 -31 -28 -17 -52 -29
-52 -27 0 3 -20 -6 -43 -19 -24 -12 -59 -26 -78 -30 -43 -9 -140 -56 -134 -65
2 -4 -2 -7 -10 -7 -8 0 -15 4 -15 9 0 5 -5 6 -10 3 -6 -4 -7 -11 -4 -17 4 -6
2 -8 -4 -4 -6 3 -16 0 -24 -7 -7 -7 -28 -19 -45 -26 -18 -7 -31 -16 -29 -20 3
-4 -3 -8 -12 -8 -71 -8 -97 -17 -87 -33 3 -4 -1 -7 -8 -7 -23 2 -97 -24 -97
-34 0 -6 -4 -8 -9 -4 -6 3 -41 -9 -80 -27 -60 -27 -69 -34 -58 -47 10 -14 10
-14 -4 -3 -14 10 -31 6 -105 -29 -49 -22 -97 -45 -106 -50 -10 -5 -25 -9 -33
-9 -8 0 -15 -4 -15 -10 0 -5 -14 -10 -31 -10 -29 0 -151 -43 -175 -61 -6 -5
-16 -3 -24 4 -10 9 -11 9 -6 0 5 -9 -1 -13 -17 -13 -24 0 -141 -55 -165 -77
-7 -7 -26 -11 -43 -9 -21 2 -29 0 -25 -9 4 -13 -19 -25 -74 -40 -48 -14 -266
-104 -335 -139 -133 -69 10 -16 195 71 52 25 104 46 115 47 11 2 36 9 55 17
19 8 63 23 97 34 34 10 60 22 57 26 -3 5 1 6 9 3 8 -3 29 8 48 23 18 15 30 23
26 17 -5 -9 3 -9 31 -2 20 5 47 10 60 11 12 0 22 7 22 14 0 7 7 13 15 13 9 0
27 7 40 16 14 9 32 14 40 10 21 -8 45 3 45 20 0 8 7 14 15 14 17 0 130 38 160
53 11 6 29 12 40 14 28 4 60 11 60 13 0 3 73 11 98 11 12 0 17 5 13 14 -3 8
-1 17 4 20 6 4 10 -2 10 -12 0 -12 3 -14 8 -6 4 6 20 10 35 9 20 -2 27 0 23
10 -3 7 2 18 10 24 8 7 14 9 14 4 0 -4 5 -3 12 4 7 7 19 12 28 12 9 0 3 -8
-15 -21 -17 -12 -21 -18 -10 -14 11 4 36 11 55 15 35 8 35 8 11 -8 -13 -9 -29
-17 -35 -19 -13 -3 -124 -41 -146 -50 -18 -8 -27 -10 -40 -12 -5 0 -10 -8 -10
-16 0 -8 -8 -15 -17 -15 -15 0 -16 2 -3 10 13 9 13 10 0 9 -25 -1 -45 -13 -45
-28 0 -8 -21 -19 -54 -28 -30 -7 -69 -23 -88 -34 -18 -11 -33 -18 -33 -15 0 3
-20 -3 -44 -14 -41 -17 -210 -66 -266 -76 -14 -3 -44 -14 -67 -24 -24 -11 -50
-20 -58 -20 -9 0 -13 -5 -10 -10 6 -9 -28 -27 -65 -35 -23 -5 -155 -75 -141
-75 7 0 20 4 30 9 9 5 23 6 30 2 10 -7 9 -13 -5 -30 -10 -11 -23 -21 -28 -21
-16 0 -47 -44 -41 -59 5 -12 3 -13 -6 -4 -13 13 -45 2 -94 -32 -16 -12 -38
-24 -48 -28 -11 -4 -15 -12 -11 -18 4 -8 3 -9 -4 -5 -14 9 -85 -38 -74 -49 4
-5 1 -5 -6 -1 -16 10 -62 -19 -62 -39 0 -8 -7 -15 -15 -15 -7 0 -18 -7 -23
-15 -4 -9 -18 -17 -29 -19 -30 -6 -63 -25 -63 -36 0 -6 -6 -10 -14 -10 -8 0
-16 -7 -19 -14 -4 -11 -1 -13 11 -9 9 4 20 11 24 17 6 8 11 6 17 -4 7 -10 5
-20 -6 -32 -14 -16 -13 -17 16 -8 17 5 31 5 31 1 0 -16 -38 -51 -54 -51 -9 0
-19 -7 -22 -15 -4 -8 -13 -15 -21 -15 -7 0 -22 -13 -31 -30 -9 -16 -25 -30
-34 -30 -13 0 -18 -8 -18 -31 0 -16 4 -28 8 -25 5 3 7 -5 6 -17 -1 -12 -3 -28
-3 -35 -1 -7 -7 -12 -13 -10 -7 1 -27 -11 -45 -27 -17 -17 -42 -38 -55 -48
l-23 -18 23 4 c15 4 22 0 22 -10 0 -10 6 -12 22 -7 21 6 22 5 8 -11 -16 -20
-16 -20 38 2 6 3 12 1 12 -5 0 -15 -26 -33 -35 -24 -5 4 -5 1 -1 -5 5 -8 -5
-19 -28 -30 -19 -9 -37 -22 -40 -30 -6 -15 10 -18 19 -3 7 12 25 4 25 -11 0
-5 -6 -9 -13 -9 -8 0 -14 -6 -14 -14 0 -7 5 -13 11 -11 40 8 66 18 66 25 0 5
12 7 26 4 15 -3 36 2 48 10 15 9 28 11 38 5 11 -6 18 -4 22 6 4 11 13 14 31 9
15 -4 25 -2 25 5 0 16 27 13 33 -3 3 -8 1 -17 -6 -20 -9 -3 -8 -5 1 -5 7 -1
17 9 22 22 5 12 9 18 9 13 1 -5 8 -3 16 4 8 6 18 9 23 6 5 -3 25 3 44 14 20
10 38 16 41 13 3 -3 26 2 51 10 25 9 48 12 51 7 3 -4 -1 -11 -7 -14 -7 -2 -2
-3 12 -1 14 1 24 7 23 12 -1 8 6 10 61 14 14 1 27 8 30 15 3 8 12 11 21 8 16
-6 58 23 51 35 -2 3 7 7 20 7 23 2 24 1 7 -12 -22 -16 -10 -18 18 -3 15 8 24
7 37 -3 11 -9 14 -10 8 0 -11 19 3 34 22 23 10 -5 26 -5 40 0 22 8 23 8 12 -6
-11 -13 -10 -15 6 -12 11 1 25 7 33 12 10 5 16 4 19 -3 2 -7 12 -8 25 -3 12 4
32 6 44 5 14 -1 23 4 23 13 0 10 6 13 16 9 16 -6 74 13 74 25 0 6 17 9 53 10
9 0 15 4 13 8 -3 4 7 7 22 7 17 -1 26 4 24 12 -1 8 2 11 7 8 5 -4 31 5 57 18
27 14 52 22 56 20 4 -3 12 5 18 16 12 23 30 27 30 6 0 -11 15 -8 65 15 35 16
70 29 76 29 6 0 25 6 42 14 18 8 53 22 79 31 30 11 45 22 41 29 -4 7 -2 7 8
-1 12 -9 35 -5 114 23 54 19 100 34 102 34 2 0 2 4 -1 9 -4 5 12 7 35 5 47 -4
114 20 103 37 -4 8 -3 9 4 5 6 -4 22 -2 34 5 17 9 23 9 26 0 3 -8 8 -8 15 -3
7 6 30 12 52 15 22 3 47 9 56 12 10 4 20 2 23 -4 7 -11 59 -4 64 9 2 4 12 5
24 2 13 -3 19 -1 15 5 -5 7 0 9 13 6 29 -8 25 -21 -12 -38 -25 -11 -27 -14 -8
-9 14 3 31 6 38 6 6 1 12 5 12 10 0 5 5 6 10 3 6 -4 10 -3 9 2 -4 23 4 29 36
30 19 1 35 -3 35 -8 0 -13 38 -11 46 3 5 8 2 9 -9 5 -10 -3 -17 -2 -17 3 0 15
53 25 58 12 2 -8 8 -7 18 3 10 9 22 11 36 6 27 -10 110 9 105 23 -3 7 9 11 28
12 27 0 31 -3 27 -19 -4 -17 -2 -18 16 -8 11 6 32 11 46 11 14 0 26 5 26 10 0
13 47 13 54 1 4 -5 -18 -17 -46 -27 -29 -9 -56 -21 -59 -26 -3 -5 -8 -9 -10
-8 -12 5 -59 -22 -54 -30 4 -6 -7 -13 -24 -16 -17 -4 -31 -11 -31 -16 0 -6 -6
-6 -14 1 -11 9 -17 8 -29 -3 -15 -15 -111 -51 -157 -59 -55 -10 -91 -20 -95
-27 -3 -5 6 -7 20 -5 14 1 25 -2 25 -6 0 -5 -9 -9 -20 -9 -21 0 -27 -15 -10
-25 6 -3 10 -1 10 5 0 6 4 9 9 5 5 -3 21 5 34 17 27 25 213 92 228 82 6 -3 15
-1 22 4 7 5 24 12 40 16 15 3 27 10 27 15 0 5 9 7 19 4 20 -5 70 22 84 45 5 7
17 10 27 7 21 -7 120 23 120 35 0 5 12 10 26 12 15 2 33 13 42 26 14 21 13 22
-20 22 -19 0 -40 -6 -47 -12 -11 -10 -13 -10 -7 0 4 6 2 12 -4 12 -6 0 -8 5
-5 10 4 6 12 10 18 9 21 -4 67 13 62 22 -11 16 31 28 70 19 22 -5 46 -5 55 0
18 10 38 9 56 -3 14 -8 37 16 26 28 -4 5 -1 5 6 1 7 -4 29 0 48 9 20 9 45 15
56 12 15 -4 18 -2 13 11 -5 14 -3 14 13 -1 19 -17 20 -17 25 3 3 12 13 20 25
20 11 0 22 5 24 11 3 9 10 9 26 0 16 -8 22 -9 22 -1 0 19 26 39 39 30 16 -10
72 11 64 24 -4 5 -1 6 6 2 15 -10 64 2 57 13 -3 5 0 9 7 8 32 -1 48 4 42 13
-3 5 0 8 7 6 37 -12 72 -16 59 -7 -11 7 -7 13 15 27 16 10 31 21 34 25 7 8 38
3 85 -14 40 -15 99 -26 143 -27 13 0 20 -4 17 -10 -8 -12 8 -13 21 -1 5 5 43
11 84 15 41 3 90 10 109 15 43 13 161 72 158 80 -3 14 29 51 46 51 10 0 20 6
23 13 5 14 49 16 61 2 5 -4 2 -5 -6 0 -11 6 -13 3 -8 -16 5 -21 4 -22 -7 -7
-11 15 -13 15 -24 -3 -7 -10 -19 -19 -27 -19 -8 0 -15 -8 -15 -17 0 -13 2 -15
8 -5 5 7 26 15 48 17 21 3 47 8 57 11 16 5 17 3 8 -15 -7 -12 -14 -21 -17 -21
-3 0 -2 6 2 13 4 6 -5 1 -19 -12 -15 -14 -27 -25 -27 -26 0 -1 24 0 53 3 28 2
71 5 95 5 23 1 42 5 42 8 0 3 10 5 23 4 30 -3 69 16 63 31 -3 7 2 10 14 7 12
-3 16 -11 13 -21 -4 -10 -2 -13 5 -8 7 4 23 -1 37 -11 26 -19 33 -35 13 -31
-24 4 -58 -13 -58 -29 0 -9 -8 -21 -17 -28 -16 -12 -14 -12 10 -8 15 3 25 9
22 13 -2 4 6 5 19 3 13 -3 27 0 30 6 4 6 19 11 33 11 22 0 24 -2 12 -16 -12
-15 -10 -15 21 -2 19 8 44 13 55 10 45 -10 253 -11 295 -1 80 19 100 19 100
-3 0 -16 -3 -17 -20 -8 -16 9 -20 8 -20 -5 0 -10 -10 -15 -30 -15 -18 0 -33
-6 -36 -15 -4 -8 -11 -12 -18 -8 -6 4 -5 0 2 -9 15 -19 42 -13 42 8 0 8 7 14
15 14 8 0 15 -6 15 -12 0 -10 3 -9 9 1 5 8 16 11 30 6 12 -4 21 -2 21 4 0 6 6
8 13 6 15 -6 190 79 181 88 -4 4 -3 7 2 8 5 0 18 2 29 5 11 2 37 6 59 8 21 2
42 10 47 17 6 11 9 10 15 -4 3 -9 11 -17 16 -17 6 0 5 6 -2 15 -6 8 -9 19 -5
24 5 10 13 7 54 -16 2 -2 -2 -11 -10 -20 -11 -15 -10 -15 9 1 16 14 22 15 22
5 0 -8 6 -4 16 9 8 12 24 22 35 22 11 0 22 7 25 15 19 49 24 -39 24 -430 l0
-433 -887 -1 c-489 0 -914 0 -945 -1 l-58 0 0 -50 0 -50 989 0 c556 0 992 4
995 9 3 5 6 225 6 489 1 423 3 481 16 486 22 9 24 8 24 -10 0 -10 6 -14 15
-10 8 3 15 2 15 -2 0 -4 28 -8 63 -10 34 -1 75 -3 90 -4 16 -1 33 5 38 13 8
12 12 11 24 -5 15 -20 15 -20 15 0 1 19 1 19 15 0 8 -10 12 -23 9 -27 -3 -5 2
-9 10 -9 20 0 20 2 1 46 -17 42 -8 49 56 40 54 -8 89 -30 90 -59 0 -22 0 -22
10 2 9 22 13 23 63 17 42 -4 55 -2 60 9 3 8 2 15 -2 15 -13 0 -8 50 5 58 6 4
16 20 22 35 6 15 14 27 18 26 26 -4 40 5 52 34 8 17 18 34 21 37 4 3 11 29 15
58 6 42 4 52 -8 52 -8 0 -17 7 -21 15 -3 8 0 14 7 12 12 -2 13 6 2 34 -9 25
47 43 68 22 13 -14 16 -13 22 6 8 27 29 28 22 1 -5 -21 8 -29 15 -8 3 7 10 8
17 3 11 -6 8 -12 -10 -27 -13 -11 -18 -17 -10 -13 19 10 80 25 119 30 18 2 38
8 45 13 29 22 48 22 57 -1 5 -12 9 -16 9 -9 1 18 19 14 23 -5 2 -10 -6 -28
-17 -40 -11 -11 -40 -42 -64 -67 -39 -40 -42 -47 -28 -60 8 -9 17 -21 19 -27
3 -9 10 -8 28 1 36 19 52 38 44 51 -4 7 -3 9 4 5 5 -3 25 12 42 34 18 22 45
47 60 55 23 12 29 22 32 60 2 25 0 52 -5 60 -4 7 -3 16 2 19 6 4 6 19 -1 39
-11 35 -11 36 -5 85 3 22 -1 36 -12 45 -9 6 -18 21 -19 32 -8 42 -86 204 -96
198 -6 -3 -8 -3 -4 2 11 12 -18 60 -70 113 -51 52 -72 83 -72 107 0 8 -5 15
-11 15 -5 0 -7 5 -4 10 3 6 1 10 -6 10 -10 0 -10 3 -1 12 8 8 4 20 -18 48 -16
20 -34 48 -41 63 -6 14 -17 24 -23 20 -6 -3 -7 -2 -3 2 10 12 60 12 68 2 4 -5
29 -10 57 -11 57 -2 84 -18 64 -38 -14 -14 -16 -32 -3 -24 5 4 11 1 13 -4 2
-6 21 -13 43 -17 22 -3 48 -13 58 -21 11 -10 33 -15 59 -13 31 1 39 -1 35 -12
-4 -11 3 -13 34 -7 57 11 116 5 134 -14 9 -8 35 -21 58 -27 23 -7 51 -21 63
-31 11 -10 31 -21 44 -23 32 -6 34 -10 31 -59 -3 -47 7 -60 55 -69 25 -5 33
-2 40 14 9 18 11 19 29 4 11 -9 14 -14 8 -10 -19 9 -16 -10 8 -56 12 -24 25
-39 33 -36 7 3 19 1 27 -4 12 -7 12 -9 0 -9 -13 0 -13 -2 -2 -12 10 -10 15
-10 18 -1 2 7 11 9 20 6 13 -5 15 -2 11 15 -4 12 -3 24 1 26 4 3 37 -6 74 -19
59 -20 68 -21 79 -7 11 13 10 14 -8 8 -14 -4 -26 -1 -34 9 -7 8 -19 15 -26 15
-8 0 -14 3 -14 8 0 9 -75 45 -95 45 -12 0 -12 3 -2 15 10 13 9 14 -9 4 -26
-14 -64 -12 -64 4 0 7 -6 14 -13 17 -9 3 -12 16 -9 35 3 25 8 30 28 27 14 -1
27 2 30 7 4 5 10 5 17 0 16 -12 75 -13 82 -2 3 5 -19 16 -49 25 -40 12 -57 22
-62 38 -9 30 -45 66 -60 60 -7 -2 -20 9 -30 26 -10 17 -22 31 -26 31 -3 0 -12
16 -19 34 -7 20 -17 32 -23 28 -6 -3 10 18 36 48 26 29 45 57 43 61 -3 4 3 6
13 5 14 -1 17 9 18 59 2 73 -3 95 -22 95 -8 0 -14 5 -14 11 0 6 -7 9 -15 6 -8
-4 -17 -1 -21 5 -5 7 -2 8 6 3 10 -6 12 -4 7 9 -6 16 19 33 62 42 26 5 45 32
34 46 -6 7 -9 21 -8 31 2 9 -3 17 -10 17 -8 0 -16 9 -20 19 -7 22 -34 36 -46
24 -5 -5 -10 -20 -11 -33 -2 -14 -5 -27 -8 -30 -3 -3 -11 -18 -18 -34 -10 -21
-16 -25 -25 -17 -10 8 -17 7 -27 -2 -12 -10 -12 -9 -1 5 12 16 10 19 -15 28
-44 17 -134 13 -169 -7 -21 -11 -26 -13 -47 -13 -9 0 -9 -3 0 -12 9 -9 -7 -20
-68 -49 -44 -21 -87 -45 -96 -53 -8 -9 -22 -16 -31 -16 -32 0 -92 -23 -86 -33
3 -6 1 -7 -6 -3 -7 4 -35 -3 -64 -17 -55 -26 -91 -37 -147 -43 -19 -3 -47 -6
-62 -9 -25 -4 -40 13 -43 47 0 4 -6 13 -12 20 -7 6 -13 18 -13 26 0 7 -4 11
-9 7 -5 -3 -15 11 -21 31 -9 25 -16 34 -27 29 -13 -4 -14 -3 -3 10 7 9 8 15 2
15 -6 0 -13 8 -15 18 -4 14 -6 14 -12 -5 -4 -13 -11 -20 -16 -18 -4 3 -4 17 1
30 6 17 6 25 -1 25 -6 0 -7 5 -4 10 3 6 -3 10 -14 10 -12 0 -21 5 -21 10 0 6
9 10 19 10 31 0 51 11 44 23 -4 7 6 2 21 -11 16 -12 35 -22 43 -22 8 0 19 -13
24 -30 6 -16 15 -28 20 -24 5 3 27 -13 50 -35 36 -36 80 -57 64 -31 -3 6 5 14
18 19 14 6 28 15 32 21 15 24 33 110 25 115 -5 3 -7 12 -3 20 7 20 -16 47 -34
41 -8 -3 -11 -2 -8 3 3 6 -2 14 -10 19 -9 5 -13 15 -10 24 5 13 13 14 36 8 16
-5 29 -6 29 -2 0 4 4 1 8 -5 5 -7 21 -14 38 -15 16 -1 32 -6 35 -12 12 -16 40
3 50 34 6 16 16 30 23 30 6 0 20 16 31 36 10 19 27 40 38 45 12 7 16 17 12 27
-3 9 -3 13 1 9 9 -9 54 32 54 48 0 22 -42 109 -66 138 -17 20 -21 34 -16 45
12 24 9 55 -5 59 -7 3 -13 0 -13 -6 0 -14 -48 6 -75 31 -14 13 -16 21 -8 29 9
9 16 8 28 -5 16 -16 25 -20 25 -11 0 13 -54 56 -68 53 -9 -2 -25 5 -34 14 -10
10 -27 18 -37 18 -11 0 -23 5 -26 10 -4 6 -1 9 6 8 7 -2 15 5 17 14 2 13 -8
22 -35 33 -21 8 -42 15 -47 14 -5 0 -12 5 -17 13 -5 7 -12 13 -16 14 -17 2
-57 23 -45 23 7 1 11 5 8 9 -3 4 8 7 25 6 16 -1 29 2 29 7 0 5 5 8 11 6 7 -1
15 10 19 25 6 21 4 27 -9 27 -9 0 -35 2 -59 4 -24 2 -51 -2 -60 -9 -9 -6 -22
-10 -29 -7 -7 3 -32 -3 -56 -12 -23 -9 -58 -19 -77 -21 -19 -2 -42 -13 -52
-24 -10 -12 -52 -29 -107 -44 -49 -13 -96 -28 -102 -32 -9 -5 -10 -2 -6 10 6
14 4 15 -16 4 -12 -7 -27 -13 -34 -14 -6 -1 -19 -7 -30 -13 -17 -11 -17 -12 2
-7 11 3 54 8 95 11 41 4 77 9 80 10 3 2 11 0 18 -4 8 -5 0 -15 -25 -32 -21
-14 -37 -31 -35 -37 1 -8 -7 -6 -24 5 -25 16 -27 16 -36 -1 -7 -13 -17 -16
-38 -11 -32 7 -45 -6 -31 -33 14 -27 1 -40 -48 -47 -31 -5 -41 -3 -36 5 6 9 2
9 -14 1 -17 -10 -21 -9 -21 4 0 8 5 15 11 15 8 0 8 4 1 13 -5 6 -9 32 -7 57 3
44 2 46 -23 45 -16 0 -26 5 -24 13 3 18 -9 15 -34 -9 -13 -12 -30 -19 -41 -16
-17 5 -17 5 2 11 11 4 28 20 37 36 19 34 9 54 -35 64 -26 6 -28 9 -25 54 3 45
4 47 36 50 17 2 32 -1 32 -5 0 -5 36 -8 80 -8 44 1 80 -3 80 -8 0 -5 6 -4 14
2 10 8 20 8 42 -4 21 -11 30 -11 36 -3 11 19 -43 36 -98 33 -36 -2 -51 1 -61
13 -11 16 -12 16 -13 -1 0 -15 -7 -18 -37 -15 -35 3 -61 28 -29 28 10 0 13 6
9 16 -3 9 -9 12 -14 7 -5 -5 -25 -7 -44 -5 -32 4 -35 7 -34 36 0 17 3 25 6 19
3 -8 14 -11 27 -7 14 3 29 -1 38 -10 14 -14 17 -13 31 2 13 15 13 19 0 31 -10
9 -18 10 -25 3 -6 -6 -18 -2 -35 14 -14 13 -29 21 -34 18 -5 -3 -9 9 -9 26 0
37 35 72 64 64 13 -4 16 -2 11 6 -5 8 0 11 16 8 15 -2 23 -9 21 -18 -3 -12 -1
-12 9 -3 15 15 5 43 -16 43 -9 0 -25 -5 -36 -10 -25 -14 -44 -3 -29 15 6 7 24
12 40 11 20 -1 30 3 33 15 3 10 3 20 0 22 -6 6 -86 -14 -100 -26 -10 -7 -13 0
-13 32 l0 41 -104 0 c-58 0 -107 3 -109 8 -3 4 34 7 82 8 52 1 96 6 111 15 22
11 22 14 7 17 -15 3 -16 7 -6 18 10 12 9 13 -5 8 -9 -3 -16 -1 -16 5 0 8 -6 9
-19 2 -16 -9 -18 -7 -14 17 4 21 2 24 -6 12 -9 -13 -11 -13 -11 1 0 25 -24 30
-51 12z m-1007 -230 c-6 -2 -10 -9 -7 -14 4 -5 -1 -6 -9 -3 -8 3 -26 -2 -40
-11 -15 -10 -33 -14 -46 -10 -26 8 -60 -3 -57 -18 1 -7 -8 -11 -20 -10 -15 2
-23 -3 -23 -13 0 -8 -4 -12 -10 -9 -17 10 -51 15 -45 6 7 -12 -30 -20 -46 -10
-12 7 -12 9 0 9 8 0 12 3 9 6 -8 7 -59 -26 -54 -35 2 -3 -10 -7 -28 -8 -51 -4
-67 -9 -75 -22 -5 -7 -24 -14 -42 -16 -19 -2 -50 -7 -69 -11 -32 -6 -34 -6
-21 10 12 14 12 16 -2 10 -8 -3 -18 -12 -21 -20 -3 -8 -10 -14 -16 -14 -6 0
-2 12 7 27 l18 28 -29 -23 c-27 -21 -30 -21 -47 -6 -10 9 -15 23 -12 32 4 12
-3 9 -22 -8 -16 -14 -25 -19 -21 -12 15 25 -56 5 -76 -23 -4 -5 -8 -7 -8 -3 0
3 -14 -7 -30 -22 -26 -24 -37 -27 -70 -20 -3 0 3 5 13 11 30 18 4 35 -47 31
-51 -4 -57 -15 -23 -43 22 -19 22 -19 -11 -3 -18 9 -30 20 -27 25 4 5 1 9 -4
9 -6 0 -11 -5 -11 -10 0 -7 -6 -7 -20 0 -15 8 -20 8 -20 -2 0 -11 -2 -10 -9 0
-6 10 -10 10 -20 -2 -7 -8 -19 -12 -27 -9 -8 3 -21 0 -29 -7 -9 -7 -18 -10
-22 -7 -8 9 -44 -33 -37 -44 3 -5 -2 -9 -11 -9 -10 0 -15 -7 -13 -17 2 -13 -3
-17 -16 -15 -10 2 -15 -1 -12 -6 3 -5 -5 -12 -19 -14 -16 -4 -25 0 -28 11 -3
10 -5 7 -6 -7 0 -13 -7 -22 -13 -21 -18 3 -98 -31 -98 -42 0 -5 -3 -8 -7 -8
-5 1 -10 0 -13 -1 -3 -1 -18 -4 -35 -6 -16 -3 -34 -9 -40 -15 -5 -5 -18 -9
-29 -9 -19 0 -19 0 0 -22 12 -15 13 -18 3 -10 -9 7 -25 9 -34 5 -13 -4 -16 -3
-11 6 4 6 -9 2 -28 -9 -20 -11 -36 -18 -36 -15 0 11 58 65 61 56 2 -5 15 6 28
27 22 34 22 36 2 18 -11 -11 -21 -15 -21 -9 0 25 -95 1 -111 -28 -5 -11 -13
-18 -17 -15 -4 2 -25 -7 -47 -20 -22 -13 -48 -27 -58 -31 -12 -4 -17 -12 -14
-24 5 -20 -3 -25 -18 -10 -14 13 -76 1 -68 -13 4 -6 0 -5 -9 2 -14 11 -18 10
-28 -7 -6 -12 -22 -24 -35 -27 -13 -3 -30 -12 -36 -20 -10 -12 -8 -13 15 -5
35 14 36 -11 1 -27 -14 -6 -25 -8 -25 -3 0 5 -11 8 -26 7 -20 -1 -24 -5 -20
-21 5 -19 4 -19 -12 2 -16 21 -19 21 -57 6 -22 -8 -74 -18 -115 -21 l-75 -7 0
-30 c-1 -16 -5 -30 -10 -30 -16 1 -44 -28 -38 -38 3 -5 -4 -4 -15 2 -23 12
-35 2 -26 -22 3 -8 -1 -21 -9 -28 -38 -37 -67 -58 -105 -74 -23 -10 -39 -22
-37 -26 3 -4 -4 -5 -15 -2 -11 3 -20 1 -20 -4 0 -5 -8 -10 -17 -11 -10 -1 -27
-3 -38 -4 -11 -2 -24 -9 -28 -15 -18 -28 -37 -14 -37 27 0 30 4 40 16 40 8 0
12 5 9 10 -3 6 -1 10 4 10 6 0 11 -6 11 -13 0 -7 8 -13 18 -14 9 -1 26 -3 37
-6 11 -3 29 4 40 14 12 10 30 20 42 22 12 2 31 11 41 20 10 9 24 17 30 17 6 0
14 5 17 10 4 6 1 9 -7 8 -7 -2 -13 4 -13 12 0 8 8 16 19 18 13 3 16 0 11 -9
-6 -8 -4 -10 5 -4 10 6 9 11 -5 22 -11 7 -25 13 -32 13 -7 0 -13 5 -13 10 0 6
9 10 20 10 11 0 23 7 26 15 4 8 10 13 14 10 9 -6 68 22 92 43 10 8 15 20 11
26 -4 6 1 4 11 -4 16 -13 20 -12 30 2 7 10 27 20 45 23 33 6 104 46 116 66 10
15 -34 2 -56 -17 -9 -8 -18 -12 -21 -9 -3 3 -26 -3 -52 -14 -25 -11 -46 -18
-46 -14 0 3 -6 1 -12 -4 -7 -6 -36 -18 -65 -28 -29 -10 -49 -23 -46 -28 3 -6
2 -7 -4 -4 -13 8 -196 -57 -186 -67 4 -4 0 -4 -10 0 -9 3 -23 2 -30 -4 -6 -5
-24 -12 -39 -16 l-28 -6 0 370 0 370 1373 -1 c754 0 1366 -3 1359 -6z m661 1
c13 -14 -24 -35 -53 -30 -21 3 -33 -1 -39 -12 -5 -10 -12 -16 -15 -14 -13 5
-27 1 -22 -7 6 -10 -33 -20 -52 -13 -9 3 -10 8 -3 16 11 13 -6 39 -28 44 -12
3 -12 0 -1 -12 13 -17 10 -19 -14 -10 -24 9 -19 21 12 32 30 11 205 16 215 6z
m59 -1 c-6 -2 -10 -9 -7 -14 4 -5 -1 -6 -9 -3 -20 8 -11 24 12 23 11 0 12 -2
4 -6z m-592 -13 c0 -5 -5 -10 -11 -10 -5 0 -7 5 -4 10 3 6 8 10 11 10 2 0 4
-4 4 -10z m920 -100 l0 -39 -50 4 c-68 4 -87 -2 -104 -36 -13 -26 -13 -28 2
-20 9 5 39 12 65 15 27 4 57 9 68 11 15 3 19 -2 19 -25 0 -23 -7 -33 -30 -45
-16 -8 -32 -15 -35 -15 -32 1 -45 -1 -42 -7 3 -5 -11 -9 -32 -10 -20 0 -49 -8
-66 -17 -39 -21 -75 -21 -75 0 0 17 -9 17 -114 0 -62 -10 -181 -43 -213 -59
-65 -33 -134 -25 -84 9 12 9 21 26 21 40 0 20 11 29 61 54 34 16 71 29 83 29
27 -1 47 4 65 15 10 6 12 5 7 -2 -4 -7 -3 -12 3 -12 6 0 15 9 21 21 9 15 18
19 38 15 15 -4 39 0 55 8 18 10 27 11 27 4 0 -6 10 -2 23 10 24 23 43 30 32
12 -3 -6 1 -7 9 -4 9 3 16 10 16 14 0 5 12 5 27 1 19 -5 42 1 85 22 32 15 56
32 53 37 -3 4 3 6 14 3 10 -3 22 0 26 6 12 20 25 0 25 -39z m-1430 -94 c0 -2
-8 -10 -17 -17 -16 -13 -17 -12 -4 4 13 16 21 21 21 13z m-699 -53 c13 -16 12
-17 -3 -4 -10 7 -18 15 -18 17 0 8 8 3 21 -13z m1082 -28 c-3 -9 -8 -14 -10
-11 -3 3 -2 9 2 15 9 16 15 13 8 -4z m1047 -37 c0 -27 -6 -45 -17 -55 -13 -10
-14 -13 -3 -11 9 2 15 -6 16 -20 1 -16 -3 -22 -13 -18 -9 4 -13 1 -10 -6 2 -7
10 -12 16 -10 6 1 11 -7 11 -18 0 -22 -46 -50 -82 -50 -19 0 -20 -2 -8 -10 11
-7 4 -10 -25 -10 -23 0 -47 -6 -54 -12 -11 -10 -13 -10 -7 0 8 14 1 15 -22 3
-9 -5 -26 -5 -37 0 -17 6 -17 8 -2 8 20 1 22 12 5 29 -8 8 -8 15 3 28 12 16
12 17 -1 10 -8 -4 -5 2 8 13 13 11 20 25 17 31 -4 7 -8 24 -10 38 -2 15 -6 36
-10 48 -5 17 0 22 32 32 21 7 63 13 93 15 30 1 65 3 77 4 21 3 23 -2 23 -39z
m-1000 8 c0 -2 -8 -10 -17 -17 -16 -13 -17 -12 -4 4 13 16 21 21 21 13z m-360
-40 c0 -2 -8 -10 -17 -17 -16 -13 -17 -12 -4 4 13 16 21 21 21 13z m600 0 c0
-2 -8 -10 -17 -17 -16 -13 -17 -12 -4 4 13 16 21 21 21 13z m356 -22 c1 -9 0
-13 -4 -10 -3 4 -7 14 -8 22 -1 9 0 13 4 10 3 -4 7 -14 8 -22z m-1405 -41 c13
-16 12 -17 -3 -4 -10 7 -18 15 -18 17 0 8 8 3 21 -13z m1124 -1 c-3 -3 -11 0
-18 7 -9 10 -8 11 6 5 10 -3 15 -9 12 -12z m285 -16 c0 -2 -8 -10 -17 -17 -16
-13 -17 -12 -4 4 13 16 21 21 21 13z m-2086 -22 c3 -8 2 -12 -4 -9 -6 3 -10
10 -10 16 0 14 7 11 14 -7z m1407 -31 c13 -16 12 -17 -3 -4 -10 7 -18 15 -18
17 0 8 8 3 21 -13z m1261 -5 c-6 -6 -15 -8 -19 -4 -4 4 -1 11 7 16 19 12 27 3
12 -12z m-2061 -35 c13 -16 12 -17 -3 -4 -10 7 -18 15 -18 17 0 8 8 3 21 -13z
m-927 -9 c3 -8 2 -12 -4 -9 -6 3 -10 10 -10 16 0 14 7 11 14 -7z m157 -1 c13
-16 12 -17 -3 -4 -10 7 -18 15 -18 17 0 8 8 3 21 -13z m3363 1 c3 -8 2 -12 -4
-9 -6 3 -10 10 -10 16 0 14 7 11 14 -7z m-2759 -42 c-3 -3 -11 0 -18 7 -9 10
-8 11 6 5 10 -3 15 -9 12 -12z m2575 14 c0 -2 -8 -10 -17 -17 -16 -13 -17 -12
-4 4 13 16 21 21 21 13z m70 -6 c0 -5 -4 -10 -10 -10 -5 0 -10 5 -10 10 0 6 5
10 10 10 6 0 10 -4 10 -10z m80 4 c0 -8 -19 -13 -24 -6 -3 5 1 9 9 9 8 0 15
-2 15 -3z m-1959 -41 c13 -16 12 -17 -3 -4 -10 7 -18 15 -18 17 0 8 8 3 21
-13z m-1604 -8 c0 -8 -4 -12 -9 -9 -4 3 -8 9 -8 15 0 5 4 9 8 9 5 0 9 -7 9
-15z m-27 -63 c0 -7 -4 -11 -9 -8 -5 3 -12 -6 -15 -19 -4 -14 -11 -23 -16 -20
-5 3 -11 1 -14 -4 -5 -8 -63 -25 -78 -22 -5 0 -8 -7 -8 -16 0 -11 -20 -29 -50
-45 -60 -33 -60 -33 -55 -7 11 54 16 61 43 55 20 -5 23 -4 12 4 -8 5 -12 10
-8 10 3 0 14 3 22 6 12 5 15 2 10 -12 -4 -14 0 -12 15 6 11 14 27 25 35 25 8
0 24 11 35 24 12 13 21 21 21 16 0 -4 10 5 21 19 17 21 24 25 30 14 5 -7 9
-19 9 -26z m2590 4 c0 -2 -8 -10 -17 -17 -16 -13 -17 -12 -4 4 13 16 21 21 21
13z m1200 0 c0 -2 -8 -10 -17 -17 -16 -13 -17 -12 -4 4 13 16 21 21 21 13z
m-955 -16 c-3 -5 -12 -10 -18 -10 -7 0 -6 4 3 10 19 12 23 12 15 0z m309 -6
c3 -8 2 -12 -4 -9 -6 3 -10 10 -10 16 0 14 7 11 14 -7z m-439 -63 c3 -5 2 -12
-3 -15 -5 -3 -9 1 -9 9 0 17 3 19 12 6z m598 -6 c-3 -9 -8 -14 -10 -11 -3 3
-2 9 2 15 9 16 15 13 8 -4z m-4078 -13 c-3 -3 -11 0 -18 7 -9 10 -8 11 6 5 10
-3 15 -9 12 -12z m3600 -80 c-3 -3 -11 0 -18 7 -9 10 -8 11 6 5 10 -3 15 -9
12 -12z m-3299 -34 c-2 -22 -10 -37 -24 -44 -12 -6 -19 -14 -14 -19 4 -5 1 -5
-6 -1 -16 9 -103 -15 -96 -26 7 -10 1 -10 -30 1 -18 7 -28 6 -36 -5 -9 -10 -9
-14 -1 -14 6 0 11 -5 11 -11 0 -5 -4 -7 -10 -4 -5 3 -10 2 -10 -3 0 -5 -9 -12
-21 -15 -13 -4 -18 -10 -13 -18 4 -8 3 -10 -5 -5 -6 4 -9 12 -6 17 7 11 -55 0
-72 -14 -7 -5 -13 -14 -13 -20 0 -6 6 -3 13 8 9 11 16 14 20 8 7 -12 -20 -28
-53 -32 -5 0 -10 -10 -10 -21 0 -11 -4 -20 -9 -20 -14 0 -13 110 2 112 25 3
33 5 82 27 101 45 134 64 128 74 -3 6 -1 7 6 3 11 -7 102 22 141 44 25 15 29
11 26 -22z m2104 -22 c0 -2 -8 -10 -17 -17 -16 -13 -17 -12 -4 4 13 16 21 21
21 13z m-2355 -16 c-3 -5 -12 -10 -18 -10 -7 0 -6 4 3 10 19 12 23 12 15 0z
m2280 0 c-3 -5 -12 -10 -18 -10 -7 0 -6 4 3 10 19 12 23 12 15 0z m1833 -85
c-3 -3 -9 2 -12 12 -6 14 -5 15 5 6 7 -7 10 -15 7 -18z m-1127 -8 c-10 -9 -11
-8 -5 6 3 10 9 15 12 12 3 -3 0 -11 -7 -18z m979 19 c0 -2 -8 -10 -17 -17 -16
-13 -17 -12 -4 4 13 16 21 21 21 13z m461 -19 c-10 -9 -11 -8 -5 6 3 10 9 15
12 12 3 -3 0 -11 -7 -18z m209 9 c-7 -7 -13 -7 -20 0 -6 6 -3 10 10 10 13 0
16 -4 10 -10z m-2805 -44 c-3 -3 -11 0 -18 7 -9 10 -8 11 6 5 10 -3 15 -9 12
-12z m2765 14 c0 -2 -7 -7 -16 -10 -8 -3 -12 -2 -9 4 6 10 25 14 25 6z m-3920
-30 c0 -2 -8 -10 -17 -17 -16 -13 -17 -12 -4 4 13 16 21 21 21 13z m-760 -62
c0 -8 -6 -14 -14 -14 -8 0 -17 -11 -20 -25 -8 -33 -22 -32 -21 1 0 16 8 30 23
38 12 7 19 16 15 21 -4 4 -2 5 5 1 6 -4 12 -14 12 -22z m80 22 c0 -2 -8 -10
-17 -17 -16 -13 -17 -12 -4 4 13 16 21 21 21 13z m4240 -10 c0 -2 -7 -7 -16
-10 -8 -3 -12 -2 -9 4 6 10 25 14 25 6z m113 -41 c-3 -9 -8 -14 -10 -11 -3 3
-2 9 2 15 9 16 15 13 8 -4z m-798 -13 c-3 -3 -11 0 -18 7 -9 10 -8 11 6 5 10
-3 15 -9 12 -12z m-2399 -72 c0 -12 -4 -16 -9 -11 -5 5 -6 14 -3 20 10 15 12
14 12 -9z m2400 -6 c1 -9 0 -13 -4 -10 -3 4 -7 14 -8 22 -1 9 0 13 4 10 3 -4
7 -14 8 -22z m-3438 -79 c-3 -3 -9 2 -12 12 -6 14 -5 15 5 6 7 -7 10 -15 7
-18z m75 10 c-3 -9 -8 -14 -10 -11 -3 3 -2 9 2 15 9 16 15 13 8 -4z m3364 0
c0 -8 -4 -15 -9 -15 -10 0 -11 14 -1 23 9 10 10 9 10 -8z m-643 -11 c3 -8 2
-12 -4 -9 -6 3 -10 10 -10 16 0 14 7 11 14 -7z m1056 12 c0 -2 -8 -10 -17 -17
-16 -13 -17 -12 -4 4 13 16 21 21 21 13z m194 -4 c2 -4 -4 -8 -14 -8 -10 0
-16 4 -14 8 3 4 9 8 14 8 5 0 11 -4 14 -8z m-4564 -44 c0 -4 -4 -8 -9 -8 -6 0
-12 4 -15 8 -3 5 1 9 9 9 8 0 15 -4 15 -9z m1080 -22 c0 -2 -8 -10 -17 -17
-16 -13 -17 -12 -4 4 13 16 21 21 21 13z m4721 -13 c13 -16 12 -17 -3 -4 -10
7 -18 15 -18 17 0 8 8 3 21 -13z m-5407 -9 c3 -8 2 -12 -4 -9 -6 3 -10 10 -10
16 0 14 7 11 14 -7z m4437 -1 c13 -16 12 -17 -3 -4 -10 7 -18 15 -18 17 0 8 8
3 21 -13z m-1631 -27 c0 -2 -7 -7 -16 -10 -8 -3 -12 -2 -9 4 6 10 25 14 25 6z
m-3125 -54 c-3 -3 -11 0 -18 7 -9 10 -8 11 6 5 10 -3 15 -9 12 -12z m2285 12
c0 -8 -19 -13 -24 -6 -3 5 1 9 9 9 8 0 15 -2 15 -3z m1595 -12 c-3 -3 -11 0
-18 7 -9 10 -8 11 6 5 10 -3 15 -9 12 -12z m1439 2 c3 -8 2 -12 -4 -9 -6 3
-10 10 -10 16 0 14 7 11 14 -7z m-5636 -39 c-3 -3 -9 2 -12 12 -6 14 -5 15 5
6 7 -7 10 -15 7 -18z m5447 5 c-3 -5 -12 -10 -18 -10 -7 0 -6 4 3 10 19 12 23
12 15 0z m-4005 -40 c0 -5 -2 -10 -4 -10 -3 0 -8 5 -11 10 -3 6 -1 10 4 10 6
0 11 -4 11 -10z m2077 -5 c0 -8 -4 -12 -9 -9 -5 3 -6 10 -3 15 9 13 12 11 12
-6z m1408 5 c-3 -5 -12 -10 -18 -10 -7 0 -6 4 3 10 19 12 23 12 15 0z m-4204
-37 c13 -16 12 -17 -3 -4 -10 7 -18 15 -18 17 0 8 8 3 21 -13z m4717 -8 c-3
-3 -9 2 -12 12 -6 14 -5 15 5 6 7 -7 10 -15 7 -18z m82 21 c0 -2 -8 -10 -17
-17 -16 -13 -17 -12 -4 4 13 16 21 21 21 13z m-4726 -22 c3 -8 2 -12 -4 -9 -6
3 -10 10 -10 16 0 14 7 11 14 -7z m999 -29 c-3 -9 -8 -14 -10 -11 -3 3 -2 9 2
15 9 16 15 13 8 -4z m3128 -2 c13 -16 12 -17 -3 -4 -10 7 -18 15 -18 17 0 8 8
3 21 -13z m957 -8 c-3 -3 -9 2 -12 12 -6 14 -5 15 5 6 7 -7 10 -15 7 -18z
m-6087 -8 c-10 -9 -11 -8 -5 6 3 10 9 15 12 12 3 -3 0 -11 -7 -18z m4819 19
c0 -2 -8 -10 -17 -17 -16 -13 -17 -12 -4 4 13 16 21 21 21 13z m-3809 -43 c13
-16 12 -17 -3 -4 -10 7 -18 15 -18 17 0 8 8 3 21 -13z m1674 -11 c-3 -3 -11 0
-18 7 -9 10 -8 11 6 5 10 -3 15 -9 12 -12z m1365 4 c-7 -7 -13 -7 -20 0 -6 6
-3 10 10 10 13 0 16 -4 10 -10z m805 4 c-3 -5 -12 -10 -18 -10 -7 0 -6 4 3 10
19 12 23 12 15 0z m-4849 -46 c1 -9 0 -13 -4 -10 -3 4 -7 14 -8 22 -1 9 0 13
4 10 3 -4 7 -14 8 -22z m4800 0 c1 -9 0 -13 -4 -10 -3 4 -7 14 -8 22 -1 9 0
13 4 10 3 -4 7 -14 8 -22z m-4965 -7 c-10 -9 -11 -8 -5 6 3 10 9 15 12 12 3
-3 0 -11 -7 -18z m2280 0 c-10 -9 -11 -8 -5 6 3 10 9 15 12 12 3 -3 0 -11 -7
-18z m682 -62 c-3 -9 -8 -14 -10 -11 -3 3 -2 9 2 15 9 16 15 13 8 -4z m3360 0
c-3 -9 -8 -14 -10 -11 -3 3 -2 9 2 15 9 16 15 13 8 -4z m-2303 1 c0 -2 -8 -10
-17 -17 -16 -13 -17 -12 -4 4 13 16 21 21 21 13z m545 -14 c-3 -3 -11 0 -18 7
-9 10 -8 11 6 5 10 -3 15 -9 12 -12z m1803 -37 c-3 -3 -9 2 -12 12 -6 14 -5
15 5 6 7 -7 10 -15 7 -18z m-6003 -3 c-3 -3 -11 0 -18 7 -9 10 -8 11 6 5 10
-3 15 -9 12 -12z m3849 10 c2 -4 -4 -8 -14 -8 -10 0 -16 4 -14 8 3 4 9 8 14 8
5 0 11 -4 14 -8z m-850 -52 c-6 -6 -10 -3 -10 10 0 13 4 16 10 10 7 -7 7 -13
0 -20z m1201 21 c3 -5 2 -12 -3 -15 -5 -3 -9 1 -9 9 0 17 3 19 12 6z m602 -6
c0 -8 -4 -12 -9 -9 -5 3 -6 10 -3 15 9 13 12 11 12 -6z m-1152 -5 c3 -6 -1 -7
-9 -4 -18 7 -21 14 -7 14 6 0 13 -4 16 -10z m229 -6 c3 -8 2 -12 -4 -9 -6 3
-10 10 -10 16 0 14 7 11 14 -7z m256 12 c0 -2 -8 -10 -17 -17 -16 -13 -17 -12
-4 4 13 16 21 21 21 13z m-3570 -40 c0 -2 -7 -7 -16 -10 -8 -3 -12 -2 -9 4 6
10 25 14 25 6z m1285 -6 c3 -6 -1 -7 -9 -4 -18 7 -21 14 -7 14 6 0 13 -4 16
-10z m3115 4 c0 -8 -19 -13 -24 -6 -3 5 1 9 9 9 8 0 15 -2 15 -3z m-1567 -39
c-3 -9 -8 -14 -10 -11 -3 3 -2 9 2 15 9 16 15 13 8 -4z m1607 11 c0 -2 -8 -10
-17 -17 -16 -13 -17 -12 -4 4 13 16 21 21 21 13z m-4409 -23 c13 -16 12 -17
-3 -4 -10 7 -18 15 -18 17 0 8 8 3 21 -13z m729 11 c0 -8 -19 -13 -24 -6 -3 5
1 9 9 9 8 0 15 -2 15 -3z m1084 -2 c2 -4 -4 -8 -14 -8 -10 0 -16 4 -14 8 3 4
9 8 14 8 5 0 11 -4 14 -8z m-2474 -36 c0 -2 -8 -10 -17 -17 -16 -13 -17 -12
-4 4 13 16 21 21 21 13z m431 -43 c13 -16 12 -17 -3 -4 -10 7 -18 15 -18 17 0
8 8 3 21 -13z m2392 2 c-3 -9 -8 -14 -10 -11 -3 3 -2 9 2 15 9 16 15 13 8 -4z
m-153 1 c0 -2 -7 -7 -16 -10 -8 -3 -12 -2 -9 4 6 10 25 14 25 6z m-2440 -30
c0 -2 -8 -10 -17 -17 -16 -13 -17 -12 -4 4 13 16 21 21 21 13z m-74 -18 c3 -4
-1 -5 -10 -4 -8 1 -18 5 -22 8 -3 4 1 5 10 4 8 -1 18 -5 22 -8z m4754 -22 c0
-2 -8 -10 -17 -17 -16 -13 -17 -12 -4 4 13 16 21 21 21 13z m-5286 -22 c3 -8
2 -12 -4 -9 -6 3 -10 10 -10 16 0 14 7 11 14 -7z m4437 -47 c-10 -9 -11 -8 -5
6 3 10 9 15 12 12 3 -3 0 -11 -7 -18z m80 6 c13 -16 12 -17 -3 -4 -10 7 -18
15 -18 17 0 8 8 3 21 -13z m-1151 -34 c0 -5 -4 -9 -8 -9 -5 0 -9 7 -9 15 0 8
4 12 9 9 4 -3 8 -9 8 -15z m2195 12 c3 -5 2 -12 -3 -15 -5 -3 -9 1 -9 9 0 17
3 19 12 6z m-1034 -48 c13 -16 12 -17 -3 -4 -10 7 -18 15 -18 17 0 8 8 3 21
-13z m-3286 -11 c-3 -3 -11 0 -18 7 -9 10 -8 11 6 5 10 -3 15 -9 12 -12z m38
-27 c-3 -9 -8 -14 -10 -11 -3 3 -2 9 2 15 9 16 15 13 8 -4z m967 11 c0 -2 -8
-10 -17 -17 -16 -13 -17 -12 -4 4 13 16 21 21 21 13z m3405 -56 c-3 -5 -12
-10 -18 -10 -7 0 -6 4 3 10 19 12 23 12 15 0z m-3885 -24 c0 -2 -8 -10 -17
-17 -16 -13 -17 -12 -4 4 13 16 21 21 21 13z m2154 -26 c-6 -6 -10 -3 -10 10
0 13 4 16 10 10 7 -7 7 -13 0 -20z m162 10 c0 -12 -4 -16 -9 -11 -5 5 -6 14
-3 20 10 15 12 14 12 -9z m1285 3 c13 -16 12 -17 -3 -4 -10 7 -18 15 -18 17 0
8 8 3 21 -13z m480 0 c13 -16 12 -17 -3 -4 -10 7 -18 15 -18 17 0 8 8 3 21
-13z m-1241 -27 c0 -2 -8 -10 -17 -17 -16 -13 -17 -12 -4 4 13 16 21 21 21 13z
m-3880 -16 c0 -5 -5 -10 -11 -10 -5 0 -7 5 -4 10 3 6 8 10 11 10 2 0 4 -4 4
-10z m-1285 -29 c3 -5 2 -12 -3 -15 -5 -3 -9 1 -9 9 0 17 3 19 12 6z m6083
-16 c-3 -3 -9 2 -12 12 -6 14 -5 15 5 6 7 -7 10 -15 7 -18z m-3164 7 c3 -5 -1
-9 -9 -9 -8 0 -12 4 -9 9 3 4 7 8 9 8 2 0 6 -4 9 -8z m-1429 -41 c-9 -8 -36
-10 -30 -2 2 4 11 8 20 8 8 0 13 -3 10 -6z m70 -9 c-3 -3 -11 0 -18 7 -9 10
-8 11 6 5 10 -3 15 -9 12 -12z m2440 -21 c3 -5 2 -12 -3 -15 -5 -3 -9 1 -9 9
0 17 3 19 12 6z m-65 -5 c0 -2 -8 -10 -17 -17 -16 -13 -17 -12 -4 4 13 16 21
21 21 13z m-2530 -30 c0 -2 -8 -10 -17 -17 -16 -13 -17 -12 -4 4 13 16 21 21
21 13z m-89 -29 c-10 -9 -11 -8 -5 6 3 10 9 15 12 12 3 -3 0 -11 -7 -18z
m2654 13 c3 -6 -1 -7 -9 -4 -18 7 -21 14 -7 14 6 0 13 -4 16 -10z m79 2 c2 -4
-4 -8 -14 -8 -10 0 -16 4 -14 8 3 4 9 8 14 8 5 0 11 -4 14 -8z m1077 -39 c13
-16 12 -17 -3 -4 -10 7 -18 15 -18 17 0 8 8 3 21 -13z m-1770 -10 c13 -16 12
-17 -3 -4 -10 7 -18 15 -18 17 0 8 8 3 21 -13z m-2031 -17 c0 -2 -8 -10 -17
-17 -16 -13 -17 -12 -4 4 13 16 21 21 21 13z m3125 -16 c-3 -5 -12 -10 -18
-10 -7 0 -6 4 3 10 19 12 23 12 15 0z m-2889 -40 c0 -12 -4 -16 -9 -11 -5 5
-6 14 -3 20 10 15 12 14 12 -9z m-72 2 c3 -5 -1 -9 -9 -9 -8 0 -12 4 -9 9 3 4
7 8 9 8 2 0 6 -4 9 -8z m3102 -9 c-1 -12 7 -19 23 -21 16 -3 21 0 16 9 -6 8
-4 10 6 3 8 -4 23 -10 33 -11 30 -5 31 -10 14 -47 -42 -87 -248 -109 -318 -33
-24 25 -27 52 -5 43 8 -3 15 0 15 5 0 6 11 9 24 7 19 -4 22 -1 18 15 -4 17 -2
18 16 8 27 -15 32 -14 32 5 0 8 4 12 10 9 5 -3 18 -1 28 4 13 7 23 6 31 -2 10
-9 14 -8 22 6 13 22 37 22 35 0z m1088 1 c3 -8 2 -12 -4 -9 -6 3 -10 10 -10
16 0 14 7 11 14 -7z m-4353 -31 c13 -16 12 -17 -3 -4 -10 7 -18 15 -18 17 0 8
8 3 21 -13z m1119 3 c0 -2 -7 -7 -16 -10 -8 -3 -12 -2 -9 4 6 10 25 14 25 6z
m1040 -10 c-7 -7 -13 -7 -20 0 -6 6 -3 10 10 10 13 0 16 -4 10 -10z m71 -3
c13 -16 12 -17 -3 -4 -10 7 -18 15 -18 17 0 8 8 3 21 -13z m-1826 -73 c-3 -5
-12 -10 -18 -10 -7 0 -6 4 3 10 19 12 23 12 15 0z m1200 0 c-3 -5 -12 -10 -18
-10 -7 0 -6 4 3 10 19 12 23 12 15 0z m1106 -13 c-10 -9 -11 -8 -5 6 3 10 9
15 12 12 3 -3 0 -11 -7 -18z m-113 -32 c-3 -3 -9 2 -12 12 -6 14 -5 15 5 6 7
-7 10 -15 7 -18z m1193 -2 c13 -16 12 -17 -3 -4 -10 7 -18 15 -18 17 0 8 8 3
21 -13z m-3546 -33 c3 -6 -1 -7 -9 -4 -18 7 -21 14 -7 14 6 0 13 -4 16 -10z
m2400 0 c3 -6 -1 -7 -9 -4 -18 7 -21 14 -7 14 6 0 13 -4 16 -10z m-3524 -77
c13 -16 12 -17 -3 -4 -10 7 -18 15 -18 17 0 8 8 3 21 -13z m4389 7 c-20 -13
-33 -13 -25 0 3 6 14 10 23 10 15 0 15 -2 2 -10z m-3915 -18 c-3 -3 -11 0 -18
7 -9 10 -8 11 6 5 10 -3 15 -9 12 -12z m1375 14 c0 -2 -8 -10 -17 -17 -16 -13
-17 -12 -4 4 13 16 21 21 21 13z m-1579 -53 c13 -16 12 -17 -3 -4 -10 7 -18
15 -18 17 0 8 8 3 21 -13z m929 -17 c0 -2 -8 -10 -17 -17 -16 -13 -17 -12 -4
4 13 16 21 21 21 13z m-1080 -40 c0 -2 -8 -10 -17 -17 -16 -13 -17 -12 -4 4
13 16 21 21 21 13z m473 -11 c-3 -9 -8 -14 -10 -11 -3 3 -2 9 2 15 9 16 15 13
8 -4z m-668 -4 c-9 -8 -36 -10 -30 -2 2 4 11 8 20 8 8 0 13 -3 10 -6z m1706
-14 c-10 -9 -11 -8 -5 6 3 10 9 15 12 12 3 -3 0 -11 -7 -18z m280 -34 c13 -16
12 -17 -3 -4 -10 7 -18 15 -18 17 0 8 8 3 21 -13z m-910 -30 c13 -16 12 -17
-3 -4 -10 7 -18 15 -18 17 0 8 8 3 21 -13z m640 0 c13 -16 12 -17 -3 -4 -10 7
-18 15 -18 17 0 8 8 3 21 -13z m-1796 -43 c3 -6 -1 -7 -9 -4 -18 7 -21 14 -7
14 6 0 13 -4 16 -10z m395 6 c0 -2 -7 -7 -16 -10 -8 -3 -12 -2 -9 4 6 10 25
14 25 6z m-920 -42 c0 -8 -19 -13 -24 -6 -3 5 1 9 9 9 8 0 15 -2 15 -3z m671
-51 c13 -16 12 -17 -3 -4 -10 7 -18 15 -18 17 0 8 8 3 21 -13z m814 7 c-3 -5
-12 -10 -18 -10 -7 0 -6 4 3 10 19 12 23 12 15 0z m869 2 c3 -5 -1 -9 -9 -9
-8 0 -12 4 -9 9 3 4 7 8 9 8 2 0 6 -4 9 -8z m-1274 -86 c-7 -7 -13 -7 -20 0
-6 6 -3 10 10 10 13 0 16 -4 10 -10z m-399 -113 c13 -16 12 -17 -3 -4 -10 7
-18 15 -18 17 0 8 8 3 21 -13z m-367 -89 c3 -8 2 -12 -4 -9 -6 3 -10 10 -10
16 0 14 7 11 14 -7z m277 -41 c13 -16 12 -17 -3 -4 -10 7 -18 15 -18 17 0 8 8
3 21 -13z m-981 -27 c0 -2 -8 -10 -17 -17 -16 -13 -17 -12 -4 4 13 16 21 21
21 13z m511 -43 c13 -16 12 -17 -3 -4 -10 7 -18 15 -18 17 0 8 8 3 21 -13z
m559 13 c0 -2 -8 -10 -17 -17 -16 -13 -17 -12 -4 4 13 16 21 21 21 13z m-480
-10 c0 -2 -7 -7 -16 -10 -8 -3 -12 -2 -9 4 6 10 25 14 25 6z m391 -19 c-10 -9
-11 -8 -5 6 3 10 9 15 12 12 3 -3 0 -11 -7 -18z m-758 -22 c-3 -9 -8 -14 -10
-11 -3 3 -2 9 2 15 9 16 15 13 8 -4z m-233 1 c0 -2 -7 -7 -16 -10 -8 -3 -12
-2 -9 4 6 10 25 14 25 6z m191 -173 c13 -16 12 -17 -3 -4 -10 7 -18 15 -18 17
0 8 8 3 21 -13z"/>
<path d="M6465 8900 c-3 -5 -2 -10 4 -10 5 0 13 5 16 10 3 6 2 10 -4 10 -5 0
-13 -4 -16 -10z"/>
<path d="M6620 8850 c-13 -8 -13 -10 2 -10 9 0 20 5 23 10 8 13 -5 13 -25 0z"/>
<path d="M6380 8760 c-13 -8 -12 -10 3 -10 9 0 17 5 17 10 0 12 -1 12 -20 0z"/>
<path d="M5944 8665 c8 -8 19 -15 25 -15 17 0 13 17 -5 24 -27 10 -36 7 -20
-9z"/>
<path d="M5774 8612 c3 -5 0 -13 -6 -15 -9 -4 -10 -6 -1 -6 17 -1 25 16 12 25
-7 4 -9 3 -5 -4z"/>
<path d="M8260 8840 c-13 -8 -12 -10 3 -10 9 0 17 5 17 10 0 12 -1 12 -20 0z"/>
<path d="M8240 8810 c0 -5 5 -10 11 -10 5 0 7 5 4 10 -3 6 -8 10 -11 10 -2 0
-4 -4 -4 -10z"/>
<path d="M8100 8580 c0 -5 4 -10 9 -10 6 0 13 5 16 10 3 6 -1 10 -9 10 -9 0
-16 -4 -16 -10z"/>
<path d="M8178 8543 c7 -3 16 -2 19 1 4 3 -2 6 -13 5 -11 0 -14 -3 -6 -6z"/>
<path d="M8210 8539 c0 -5 5 -7 10 -4 6 3 10 8 10 11 0 2 -4 4 -10 4 -5 0 -10
-5 -10 -11z"/>
<path d="M8338 9173 c6 -2 18 -2 25 0 6 3 1 5 -13 5 -14 0 -19 -2 -12 -5z"/>
<path d="M7620 9151 c0 -8 -8 -10 -22 -6 -19 6 -21 5 -10 -6 17 -18 15 -29 -5
-30 -10 0 -13 -3 -7 -5 7 -3 26 4 43 14 27 17 30 21 16 32 -11 9 -15 9 -15 1z"/>
<path d="M7532 9138 c-15 -15 -16 -38 -2 -38 6 0 10 5 10 10 0 6 7 10 15 10 9
0 12 6 9 15 -7 18 -16 19 -32 3z"/>
<path d="M8548 9125 c-17 -10 -29 -11 -33 -5 -8 14 -21 13 -37 -3 -7 -7 -23
-20 -36 -29 -23 -16 -23 -16 17 -20 30 -2 41 0 41 10 0 7 8 12 18 10 9 -1 23
1 30 6 8 5 24 3 38 -4 17 -10 30 -10 46 -2 21 9 20 10 -12 9 -30 -2 -35 1 -34
21 1 26 -2 26 -38 7z"/>
<path d="M8743 9105 c-16 -12 -14 -13 15 -10 40 3 50 11 23 18 -11 3 -28 -1
-38 -8z"/>
<path d="M7496 9095 c-3 -8 -1 -15 4 -15 6 0 10 7 10 15 0 8 -2 15 -4 15 -2 0
-6 -7 -10 -15z"/>
<path d="M8818 9103 c7 -3 16 -2 19 1 4 3 -2 6 -13 5 -11 0 -14 -3 -6 -6z"/>
<path d="M7223 9093 c-14 -5 -18 -33 -5 -33 4 0 15 9 25 20 17 20 8 25 -20 13z"/>
<path d="M7593 9073 c-15 -5 -17 -23 -4 -23 5 0 11 7 15 15 3 8 4 15 3 14 -1
0 -8 -3 -14 -6z"/>
<path d="M8682 9024 c-16 -8 -20 -14 -12 -19 6 -4 16 -3 22 3 6 6 16 8 23 6 7
-3 16 -1 19 4 9 15 -27 19 -52 6z"/>
<path d="M8754 9014 c8 -22 -21 -55 -42 -47 -10 4 -13 2 -8 -5 4 -7 -3 -14
-19 -18 -14 -3 -43 -28 -66 -55 l-40 -48 31 11 c26 8 34 8 41 -3 6 -10 3 -15
-11 -17 -11 -2 -20 -7 -20 -11 0 -5 11 -6 25 -3 17 3 27 -1 31 -12 7 -18 34
-22 34 -5 0 5 -4 7 -10 4 -18 -11 -11 15 10 38 14 14 17 23 9 26 -6 2 -15 -3
-20 -10 -7 -11 -9 -11 -9 -1 0 22 58 39 130 37 38 -1 67 1 65 5 -2 4 7 5 20 2
14 -2 32 1 40 8 14 11 11 16 -22 36 -40 24 -125 66 -157 78 -14 5 -17 3 -12
-10z"/>
<path d="M8835 8810 c-5 -9 18 -20 41 -20 8 0 14 4 14 9 0 11 -49 21 -55 11z"/>
<path d="M8905 8800 c-3 -5 -1 -10 4 -10 6 0 11 5 11 10 0 6 -2 10 -4 10 -3 0
-8 -4 -11 -10z"/>
<path d="M8670 8587 c-20 -16 -21 -19 -5 -12 25 10 116 15 130 7 18 -11 45
-12 45 -2 0 14 54 12 69 -2 11 -11 12 -9 3 7 -8 16 -21 21 -56 22 -26 1 -46
-3 -46 -9 0 -6 -7 -7 -17 -3 -40 17 -99 13 -123 -8z"/>
<path d="M8625 8570 c-3 -5 -1 -10 4 -10 6 0 11 5 11 10 0 6 -2 10 -4 10 -3 0
-8 -4 -11 -10z"/>
<path d="M8880 8560 c-9 -6 -10 -10 -3 -10 6 0 15 5 18 10 8 12 4 12 -15 0z"/>
<path d="M9317 8533 c-4 -3 -7 -11 -7 -17 0 -6 5 -5 12 2 6 6 9 14 7 17 -3 3
-9 2 -12 -2z"/>
<path d="M8690 8521 c0 -6 4 -13 10 -16 6 -3 7 1 4 9 -7 18 -14 21 -14 7z"/>
<path d="M8602 8498 c-7 -7 -12 -18 -12 -25 0 -7 -6 -13 -14 -13 -8 0 -17 -4
-20 -8 -3 -5 8 -6 25 -4 19 3 29 10 29 21 0 9 5 22 12 29 7 7 8 12 2 12 -5 0
-15 -5 -22 -12z"/>
<path d="M8590 8436 c0 -2 8 -10 18 -17 15 -13 16 -12 3 4 -13 16 -21 21 -21
13z"/>
<path d="M4170 8030 c0 -5 7 -7 15 -4 8 4 15 8 15 10 0 2 -7 4 -15 4 -8 0 -15
-4 -15 -10z"/>
<path d="M4125 8020 c3 -5 8 -10 11 -10 2 0 4 5 4 10 0 6 -5 10 -11 10 -5 0
-7 -4 -4 -10z"/>
<path d="M9669 8019 c-11 -7 -9 -9 7 -9 12 0 38 -7 59 -16 44 -18 56 -13 21 9
-31 21 -69 28 -87 16z"/>
<path d="M4165 8000 c-3 -5 -1 -10 4 -10 6 0 11 5 11 10 0 6 -2 10 -4 10 -3 0
-8 -4 -11 -10z"/>
<path d="M3676 7992 c-3 -5 8 -16 25 -26 16 -9 29 -12 29 -7 0 6 10 11 23 12
l22 0 -23 10 c-13 5 -28 7 -32 4 -5 -3 -11 -1 -15 5 -7 12 -22 13 -29 2z"/>
<path d="M3655 7961 c-11 -5 -26 -6 -34 -3 -9 3 -12 1 -7 -6 4 -7 1 -12 -7
-12 -8 0 -17 -7 -21 -15 -3 -8 -11 -14 -18 -13 -7 2 -13 -4 -13 -12 0 -16 -30
-50 -44 -50 -5 0 -14 7 -21 15 -18 21 -29 19 -23 -5 3 -11 0 -21 -6 -21 -6 -1
-15 -3 -21 -4 -5 -1 -14 -3 -19 -4 -5 0 -12 -8 -15 -17 -5 -13 -3 -14 6 -7 16
13 90 25 84 14 -7 -10 105 25 164 52 25 11 51 22 59 23 8 1 21 10 30 20 9 9
11 14 5 11 -6 -3 -22 -8 -37 -11 -27 -5 -31 1 -28 37 2 18 -3 20 -34 8z"/>
<path d="M4216 7961 c-18 -7 -18 -8 -3 -14 10 -4 17 -2 17 4 0 6 7 8 16 5 8
-3 12 -2 9 4 -7 11 -12 12 -39 1z"/>
<path d="M3560 7941 c0 -6 4 -12 8 -15 5 -3 9 1 9 9 0 8 -4 15 -9 15 -4 0 -8
-4 -8 -9z"/>
<path d="M4148 7943 c-10 -2 -18 -8 -18 -13 0 -5 -3 -17 -6 -27 -4 -12 3 -8
19 11 16 18 29 26 37 21 9 -5 11 -4 6 3 -7 12 -9 13 -38 5z"/>
<path d="M3776 7925 c4 -8 8 -15 10 -15 2 0 4 7 4 15 0 8 -4 15 -10 15 -5 0
-7 -7 -4 -15z"/>
<path d="M3242 7860 c-7 -11 -20 -20 -30 -20 -14 0 -15 -2 -2 -10 9 -6 17 -5
22 3 4 7 23 12 42 13 48 2 75 12 57 24 -8 5 -24 4 -38 -3 -18 -8 -26 -8 -32 1
-4 8 -11 5 -19 -8z"/>
<path d="M3975 7850 c-19 -8 -19 -9 2 -9 12 -1 25 4 28 9 7 12 -2 12 -30 0z"/>
<path d="M9890 7851 c0 -7 -4 -10 -9 -6 -5 3 -12 1 -16 -4 -3 -6 3 -15 14 -20
15 -8 20 -7 25 6 4 9 2 21 -4 27 -7 7 -10 6 -10 -3z"/>
<path d="M3095 7802 c-11 -9 -18 -16 -16 -15 2 1 11 -2 20 -6 13 -7 16 -4 17
15 1 13 1 24 0 24 0 0 -10 -8 -21 -18z"/>
<path d="M4355 7800 c-3 -5 1 -10 9 -10 8 0 18 5 21 10 3 6 -1 10 -9 10 -8 0
-18 -4 -21 -10z"/>
<path d="M4189 7783 c-12 -16 -12 -17 2 -6 9 7 20 9 24 5 5 -4 5 -1 1 6 -9 16
-11 15 -27 -5z"/>
<path d="M4240 7788 c0 -4 12 -8 27 -8 14 0 23 3 19 7 -10 10 -46 11 -46 1z"/>
<path d="M3040 7770 c-9 -6 -10 -10 -3 -10 6 0 15 5 18 10 8 12 4 12 -15 0z"/>
<path d="M4285 7760 c3 -5 8 -10 11 -10 2 0 4 5 4 10 0 6 -5 10 -11 10 -5 0
-7 -4 -4 -10z"/>
<path d="M9455 7760 c-3 -5 -1 -10 4 -10 6 0 11 5 11 10 0 6 -2 10 -4 10 -3 0
-8 -4 -11 -10z"/>
<path d="M4248 7743 c7 -3 16 -2 19 1 4 3 -2 6 -13 5 -11 0 -14 -3 -6 -6z"/>
<path d="M9492 7718 c2 -6 10 -14 16 -16 7 -2 10 2 6 12 -7 18 -28 22 -22 4z"/>
<path d="M4285 7710 c-3 -6 1 -7 9 -4 18 7 21 14 7 14 -6 0 -13 -4 -16 -10z"/>
<path d="M4305 7690 c7 -11 55 -19 55 -9 0 5 -6 9 -12 10 -7 0 -21 2 -31 4 -9
2 -15 0 -12 -5z"/>
<path d="M4248 7683 c7 -3 16 -2 19 1 4 3 -2 6 -13 5 -11 0 -14 -3 -6 -6z"/>
<path d="M4070 7651 c0 -5 9 -7 20 -4 11 3 20 7 20 9 0 2 -9 4 -20 4 -11 0
-20 -4 -20 -9z"/>
<path d="M4175 7626 c-19 -8 -25 -15 -17 -20 7 -4 12 -2 12 3 0 6 9 11 20 11
11 0 20 5 20 10 0 12 2 12 -35 -4z"/>
<path d="M3996 7614 c-11 -8 -16 -14 -10 -14 13 0 39 18 34 24 -3 2 -14 -2
-24 -10z"/>
<path d="M3946 7594 c-4 -9 -4 -19 -1 -22 3 -3 5 0 5 6 0 6 8 9 18 6 10 -4 13
-2 7 3 -5 4 -13 12 -16 16 -4 4 -9 0 -13 -9z"/>
<path d="M4085 7591 c-3 -5 -1 -12 5 -16 5 -3 10 1 10 9 0 18 -6 21 -15 7z"/>
<path d="M3890 7570 c-8 -5 -17 -7 -20 -5 -4 2 -7 -2 -7 -10 0 -8 6 -16 14
-19 7 -3 13 1 13 9 0 7 8 15 18 17 10 2 13 6 7 10 -6 4 -17 3 -25 -2z"/>
<path d="M3837 7563 c-4 -3 -7 -11 -7 -17 0 -6 5 -5 12 2 6 6 9 14 7 17 -3 3
-9 2 -12 -2z"/>
<path d="M2434 7551 c3 -5 -6 -8 -20 -8 -15 0 -30 -6 -34 -13 -4 -6 -11 -11
-16 -11 -5 1 -9 -5 -9 -11 0 -17 11 -16 63 6 44 19 52 30 26 40 -8 3 -13 2
-10 -3z"/>
<path d="M2476 7552 c-3 -5 1 -9 9 -9 8 0 12 4 9 9 -3 4 -7 8 -9 8 -2 0 -6 -4
-9 -8z"/>
<path d="M3740 7510 c-9 -16 -8 -18 5 -14 8 4 15 12 15 20 0 20 -7 17 -20 -6z"/>
<path d="M2288 7497 c-16 -6 -28 -17 -28 -24 0 -16 17 -17 22 -1 3 7 18 11 38
10 28 -2 31 0 20 13 -14 17 -15 17 -52 2z"/>
<path d="M3690 7494 c0 -14 3 -14 15 -4 8 7 15 14 15 16 0 2 -7 4 -15 4 -8 0
-15 -7 -15 -16z"/>
<path d="M3798 7503 c7 -3 16 -2 19 1 4 3 -2 6 -13 5 -11 0 -14 -3 -6 -6z"/>
<path d="M9170 7506 c0 -2 7 -9 15 -16 13 -11 14 -10 9 4 -5 14 -24 23 -24 12z"/>
<path d="M3586 7471 c-10 -11 -24 -17 -31 -15 -7 3 -29 -6 -49 -20 -21 -14
-44 -22 -52 -19 -8 3 -14 0 -14 -6 0 -6 17 -11 40 -11 33 0 42 4 52 25 6 14
15 25 20 25 5 0 6 -4 3 -10 -3 -5 0 -10 8 -10 19 0 67 39 49 40 -7 0 -10 5 -7
10 10 17 -1 11 -19 -9z"/>
<path d="M3636 7483 c5 -5 12 -12 16 -18 4 -6 8 -2 8 8 0 9 -7 17 -17 17 -9 0
-12 -3 -7 -7z"/>
<path d="M3400 7398 c0 -4 4 -8 9 -8 6 0 12 4 15 8 3 5 -1 9 -9 9 -8 0 -15 -4
-15 -9z"/>
<path d="M3178 7313 c7 -3 16 -2 19 1 4 3 -2 6 -13 5 -11 0 -14 -3 -6 -6z"/>
<path d="M2995 7230 c-3 -6 1 -7 9 -4 18 7 21 14 7 14 -6 0 -13 -4 -16 -10z"/>
<path d="M10685 7037 c-29 -29 -56 -60 -62 -70 -5 -9 -23 -21 -41 -26 -28 -9
-32 -7 -32 10 0 14 -4 18 -12 12 -24 -14 -42 -12 -56 8 -7 11 -18 16 -24 13
-14 -9 -87 -11 -82 -3 5 9 -35 15 -64 11 -47 -7 -34 -62 15 -62 13 0 35 -8 49
-17 20 -13 27 -14 34 -4 5 10 9 10 15 2 3 -7 15 -9 26 -6 13 5 19 2 17 -7 -2
-8 5 -12 20 -10 12 2 22 -2 22 -9 0 -8 4 -8 15 1 10 9 15 9 15 1 0 -6 7 -11
15 -11 8 0 15 -4 15 -8 0 -5 18 -15 40 -22 22 -7 42 -21 45 -32 9 -26 105 -26
129 1 14 16 15 20 2 30 -12 10 -21 8 -46 -10 -23 -18 -35 -21 -47 -13 -19 12
-26 54 -8 48 17 -7 105 45 105 62 0 8 12 19 26 24 14 6 22 15 19 21 -9 14 -56
3 -71 -17 -10 -12 -12 -9 -12 20 0 19 -3 39 -7 45 -3 6 -2 11 3 11 5 0 14 11
20 24 9 21 8 25 -10 29 -14 4 -34 -8 -73 -46z"/>
<path d="M3275 7030 c-3 -5 -1 -10 4 -10 6 0 11 5 11 10 0 6 -2 10 -4 10 -3 0
-8 -4 -11 -10z"/>
<path d="M10915 6970 c3 -5 13 -10 21 -10 8 0 14 5 14 10 0 6 -9 10 -21 10
-11 0 -17 -4 -14 -10z"/>
<path d="M2528 6883 c7 -3 16 -2 19 1 4 3 -2 6 -13 5 -11 0 -14 -3 -6 -6z"/>
<path d="M10194 6785 c-3 -14 -1 -31 5 -39 6 -7 8 -16 4 -19 -3 -4 1 -7 10 -7
9 0 19 5 22 10 3 6 -1 10 -9 10 -9 0 -16 9 -16 20 0 11 5 20 10 20 15 0 12 17
-5 24 -10 3 -17 -3 -21 -19z"/>
<path d="M4398 6793 c-10 -2 -18 -9 -18 -14 0 -14 26 -11 40 6 13 15 9 16 -22
8z"/>
<path d="M4340 6780 c0 -5 7 -7 15 -4 8 4 15 8 15 10 0 2 -7 4 -15 4 -8 0 -15
-4 -15 -10z"/>
<path d="M4457 6756 c-15 -7 -25 -15 -21 -18 8 -8 54 12 54 24 0 4 -1 8 -2 7
-2 0 -15 -6 -31 -13z"/>
<path d="M10258 6653 c7 -3 16 -2 19 1 4 3 -2 6 -13 5 -11 0 -14 -3 -6 -6z"/>
<path d="M10290 6650 c0 -5 5 -10 11 -10 5 0 7 5 4 10 -3 6 -8 10 -11 10 -2 0
-4 -4 -4 -10z"/>
<path d="M4005 6600 c-3 -5 1 -10 9 -10 9 0 16 5 16 10 0 6 -4 10 -9 10 -6 0
-13 -4 -16 -10z"/>
<path d="M3358 6503 c7 -3 16 -2 19 1 4 3 -2 6 -13 5 -11 0 -14 -3 -6 -6z"/>
<path d="M3158 6453 c7 -3 16 -2 19 1 4 3 -2 6 -13 5 -11 0 -14 -3 -6 -6z"/>
<path d="M2685 6420 c-3 -6 1 -7 9 -4 18 7 21 14 7 14 -6 0 -13 -4 -16 -10z"/>
<path d="M9195 6380 c-16 -7 -17 -9 -3 -9 9 -1 20 4 23 9 7 11 7 11 -20 0z"/>
<path d="M9159 6302 c5 -9 12 -26 16 -36 8 -27 14 -16 8 16 -3 15 -11 29 -19
32 -10 4 -11 1 -5 -12z"/>
<path d="M9977 6306 c-4 -10 -5 -21 -2 -24 9 -9 17 6 13 25 -3 17 -4 17 -11
-1z"/>
<path d="M3390 6253 c-13 -15 -12 -16 4 -10 10 4 22 7 27 7 5 0 9 5 9 10 0 15
-23 11 -40 -7z"/>
<path d="M3358 6245 c-3 -3 -14 -8 -24 -10 -110 -26 -127 -34 -62 -30 24 2 51
4 60 4 10 1 22 10 28 21 10 19 9 26 -2 15z"/>
<path d="M9148 6214 c6 -11 11 -23 11 -29 1 -5 11 -8 23 -7 20 4 20 3 5 -13
-10 -9 -22 -25 -27 -36 -9 -16 -7 -19 10 -19 11 0 22 0 25 0 3 0 5 3 4 6 0 4
5 10 11 14 19 12 4 42 -36 74 -26 20 -33 23 -26 10z"/>
<path d="M9770 6206 c0 -2 8 -10 18 -17 15 -13 16 -12 3 4 -13 16 -21 21 -21
13z"/>
<path d="M9130 6190 c-8 -26 -7 -41 2 -32 6 6 8 16 5 24 -3 7 -6 11 -7 8z"/>
<path d="M9835 6181 c-9 -16 9 -20 23 -5 10 12 10 14 -2 14 -8 0 -17 -4 -21
-9z"/>
<path d="M9947 6179 c7 -7 15 -10 18 -7 3 3 -2 9 -12 12 -14 6 -15 5 -6 -5z"/>
<path d="M9968 6123 c7 -3 16 -2 19 1 4 3 -2 6 -13 5 -11 0 -14 -3 -6 -6z"/>
<path d="M9034 6059 c-3 -6 -2 -15 3 -20 5 -5 9 -1 10 11 2 22 -2 25 -13 9z"/>
<path d="M8065 5959 c-11 -17 1 -21 15 -4 8 9 8 15 2 15 -6 0 -14 -5 -17 -11z"/>
<path d="M1850 5939 c0 -5 5 -7 10 -4 6 3 10 8 10 11 0 2 -4 4 -10 4 -5 0 -10
-5 -10 -11z"/>
<path d="M7068 5929 c-27 -15 -21 -29 7 -16 14 7 25 15 25 20 0 10 -11 8 -32
-4z"/>
<path d="M7136 5930 c-19 -6 -19 -7 -1 -13 20 -8 29 -4 24 11 -2 5 -13 6 -23
2z"/>
<path d="M2375 5910 c-16 -7 -17 -9 -3 -9 9 -1 20 4 23 9 7 11 7 11 -20 0z"/>
<path d="M6750 5910 c-13 -8 -12 -10 3 -10 9 0 17 5 17 10 0 12 -1 12 -20 0z"/>
<path d="M6990 5900 c-23 -7 -23 -8 -3 -9 12 -1 25 4 28 9 3 6 5 10 3 9 -2 -1
-14 -5 -28 -9z"/>
<path d="M2285 5870 c3 -5 8 -10 11 -10 2 0 4 5 4 10 0 6 -5 10 -11 10 -5 0
-7 -4 -4 -10z"/>
<path d="M7310 5849 c0 -5 5 -7 10 -4 6 3 10 8 10 11 0 2 -4 4 -10 4 -5 0 -10
-5 -10 -11z"/>
<path d="M2797 5820 c-3 -11 -2 -20 3 -20 4 0 10 9 13 20 3 11 2 20 -3 20 -4
0 -10 -9 -13 -20z"/>
<path d="M6998 5833 c7 -3 16 -2 19 1 4 3 -2 6 -13 5 -11 0 -14 -3 -6 -6z"/>
<path d="M8825 5810 c3 -5 11 -10 16 -10 6 0 7 5 4 10 -3 6 -11 10 -16 10 -6
0 -7 -4 -4 -10z"/>
<path d="M2754 5795 c-16 -12 -17 -14 -3 -15 9 0 19 7 23 15 7 19 5 19 -20 0z"/>
<path d="M2635 5790 c-3 -5 -2 -10 4 -10 5 0 13 5 16 10 3 6 2 10 -4 10 -5 0
-13 -4 -16 -10z"/>
<path d="M6610 5790 c-12 -8 -10 -10 8 -10 13 0 20 4 17 10 -7 12 -6 12 -25 0z"/>
<path d="M5755 5760 c-3 -6 1 -7 9 -4 18 7 21 14 7 14 -6 0 -13 -4 -16 -10z"/>
<path d="M6477 5753 c-4 -3 -7 -11 -7 -17 0 -6 5 -5 12 2 6 6 9 14 7 17 -3 3
-9 2 -12 -2z"/>
<path d="M6408 5733 c-10 -2 -15 -10 -11 -19 3 -9 -2 -14 -15 -14 -12 0 -24
-4 -27 -10 -8 -13 2 -12 45 5 19 7 29 14 21 14 -11 1 -11 4 -1 16 7 8 11 14 9
14 -2 -1 -12 -3 -21 -6z"/>
<path d="M2715 5720 c3 -5 8 -10 11 -10 2 0 4 5 4 10 0 6 -5 10 -11 10 -5 0
-7 -4 -4 -10z"/>
<path d="M6342 5719 c-13 -5 -28 -7 -33 -3 -5 3 -9 1 -9 -5 0 -6 -7 -8 -15 -5
-8 4 -15 2 -15 -3 0 -5 -12 -8 -27 -6 -16 3 -37 -3 -48 -11 -14 -12 -15 -14
-4 -10 10 3 20 1 24 -5 6 -11 -7 -15 -32 -12 -7 1 -13 -5 -13 -14 0 -9 5 -13
10 -10 6 3 10 1 10 -4 0 -6 -5 -11 -12 -11 -6 0 -9 -2 -6 -5 3 -3 25 3 49 14
79 33 89 37 112 40 6 2 3 6 -7 10 -17 6 -15 9 12 20 18 8 32 17 32 22 0 5 -1
9 -2 8 -2 0 -14 -4 -26 -10z"/>
<path d="M5390 5685 c7 -8 17 -15 22 -15 6 0 5 7 -2 15 -7 8 -17 15 -22 15 -6
0 -5 -7 2 -15z"/>
<path d="M5505 5690 c3 -5 -8 -16 -25 -25 -16 -8 -30 -20 -30 -25 0 -10 43 13
67 36 10 10 9 13 -3 18 -8 3 -12 2 -9 -4z"/>
<path d="M5550 5680 c-9 -6 -10 -10 -3 -10 6 0 15 5 18 10 8 12 4 12 -15 0z"/>
<path d="M5935 5680 c4 -6 11 -8 16 -5 14 9 11 15 -7 15 -8 0 -12 -5 -9 -10z"/>
<path d="M6139 5653 c-13 -16 -12 -17 4 -4 16 13 21 21 13 21 -2 0 -10 -8 -17
-17z"/>
<path d="M5850 5570 c0 -5 5 -10 11 -10 5 0 7 5 4 10 -3 6 -8 10 -11 10 -2 0
-4 -4 -4 -10z"/>
<path d="M5698 5533 c7 -3 16 -2 19 1 4 3 -2 6 -13 5 -11 0 -14 -3 -6 -6z"/>
<path d="M2338 5523 c7 -3 16 -2 19 1 4 3 -2 6 -13 5 -11 0 -14 -3 -6 -6z"/>
<path d="M5735 5520 c-3 -5 -1 -10 4 -10 6 0 11 5 11 10 0 6 -2 10 -4 10 -3 0
-8 -4 -11 -10z"/>
<path d="M4675 5500 c-3 -5 -1 -10 4 -10 6 0 11 5 11 10 0 6 -2 10 -4 10 -3 0
-8 -4 -11 -10z"/>
<path d="M4828 5493 c7 -3 16 -2 19 1 4 3 -2 6 -13 5 -11 0 -14 -3 -6 -6z"/>
<path d="M5640 5490 c-9 -6 -10 -10 -3 -10 6 0 15 5 18 10 8 12 4 12 -15 0z"/>
<path d="M4320 5479 c0 -5 -5 -7 -12 -3 -7 4 -8 3 -4 -4 4 -6 13 -9 21 -5 17
6 20 23 5 23 -5 0 -10 -5 -10 -11z"/>
<path d="M2195 5410 c-3 -5 -2 -10 4 -10 5 0 13 5 16 10 3 6 2 10 -4 10 -5 0
-13 -4 -16 -10z"/>
<path d="M4170 5390 c-9 -6 -10 -10 -3 -10 6 0 15 5 18 10 8 12 4 12 -15 0z"/>
<path d="M4610 5380 c0 -5 5 -10 11 -10 5 0 7 5 4 10 -3 6 -8 10 -11 10 -2 0
-4 -4 -4 -10z"/>
<path d="M4580 5360 c0 -5 7 -10 16 -10 8 0 12 5 9 10 -3 6 -10 10 -16 10 -5
0 -9 -4 -9 -10z"/>
<path d="M4287 5345 c3 -8 9 -12 14 -9 12 7 11 11 -5 17 -10 4 -13 1 -9 -8z"/>
<path d="M4533 5340 c-30 -12 -29 -18 2 -12 14 2 25 8 25 13 0 5 -1 9 -2 8 -2
0 -13 -4 -25 -9z"/>
<path d="M4200 5305 c-25 -13 -38 -24 -29 -24 9 -1 19 2 23 7 4 4 26 15 49 24
23 9 33 17 22 16 -11 0 -40 -11 -65 -23z"/>
<path d="M4440 5320 c-8 -5 -12 -11 -9 -14 3 -3 14 1 25 9 21 16 8 20 -16 5z"/>
<path d="M4550 5310 c-25 -10 -37 -19 -27 -19 18 -1 77 25 77 34 0 6 3 7 -50
-15z"/>
<path d="M4474 5305 c-18 -14 -18 -14 4 -8 12 3 22 9 22 14 0 12 -3 11 -26 -6z"/>
<path d="M4111 5274 c0 -11 3 -14 6 -6 3 7 2 16 -1 19 -3 4 -6 -2 -5 -13z"/>
<path d="M2260 5270 c0 -5 5 -10 11 -10 5 0 7 5 4 10 -3 6 -8 10 -11 10 -2 0
-4 -4 -4 -10z"/>
<path d="M4430 5260 l-25 -8 28 -1 c15 -1 27 4 27 9 0 6 -1 10 -2 9 -2 -1 -14
-5 -28 -9z"/>
<path d="M4350 5229 c0 -5 5 -7 10 -4 6 3 10 8 10 11 0 2 -4 4 -10 4 -5 0 -10
-5 -10 -11z"/>
<path d="M4298 5223 c-9 -2 -19 -11 -22 -19 -7 -19 1 -18 26 6 12 11 20 19 17
19 -2 -1 -11 -3 -21 -6z"/>
<path d="M4224 5185 c-10 -8 -14 -14 -9 -15 15 0 40 18 34 24 -3 3 -14 -1 -25
-9z"/>
<path d="M2190 5155 c-7 -8 -8 -15 -2 -15 5 0 15 7 22 15 7 8 8 15 2 15 -5 0
-15 -7 -22 -15z"/>
<path d="M2086 5105 c-16 -12 -17 -15 -4 -15 8 0 21 7 28 15 16 19 1 19 -24 0z"/>
<path d="M2028 5063 c7 -3 16 -2 19 1 4 3 -2 6 -13 5 -11 0 -14 -3 -6 -6z"/>
<path d="M2451 4946 c-10 -12 -8 -13 8 -9 12 3 21 9 21 14 0 14 -16 11 -29 -5z"/>
<path d="M4387 4466 c-47 -14 -84 -48 -96 -90 -12 -41 -13 -699 -1 -750 5 -22
22 -52 38 -69 25 -25 40 -30 96 -34 49 -4 78 -1 112 12 67 25 82 65 84 218 l1
117 -46 0 c-25 0 -45 -3 -46 -7 0 -5 -2 -59 -3 -122 -1 -98 -4 -115 -21 -127
-29 -21 -89 -18 -111 7 -18 20 -19 41 -19 381 l1 360 22 18 c28 23 91 19 109
-6 9 -12 13 -54 13 -128 l0 -111 38 1 c21 0 42 3 48 7 7 4 10 46 9 115 -3 122
-18 168 -63 194 -36 21 -117 28 -165 14z"/>
<path d="M5516 4470 c-42 -13 -75 -48 -87 -94 -7 -26 -11 -167 -10 -388 0
-320 2 -352 19 -391 24 -55 68 -77 149 -77 76 0 122 23 148 75 19 38 20 60 20
405 0 337 -2 368 -19 403 -10 21 -32 45 -47 53 -35 18 -133 26 -173 14z m124
-90 c23 -23 23 -21 23 -468 0 -247 -2 -274 -18 -292 -22 -24 -82 -27 -111 -6
-18 14 -19 30 -19 379 0 345 1 366 19 386 25 27 79 28 106 1z"/>
<path d="M6126 4469 c-41 -12 -75 -47 -87 -91 -5 -21 -9 -96 -8 -167 2 -190
20 -222 147 -257 76 -20 89 -40 92 -134 6 -187 -5 -220 -72 -220 -65 0 -78 28
-78 164 l0 106 -45 0 -45 0 0 -102 c1 -129 11 -173 48 -211 26 -25 39 -30 98
-34 110 -8 167 26 182 109 3 18 5 89 5 158 0 175 -22 214 -139 246 -96 26 -99
31 -99 191 0 131 1 135 25 155 18 15 33 18 60 14 53 -9 60 -25 60 -151 0 -110
0 -112 23 -109 12 1 33 3 46 3 l23 1 -3 123 c-4 132 -13 160 -64 193 -28 18
-125 26 -169 13z"/>
<path d="M8215 4473 c-46 -9 -71 -25 -95 -60 l-25 -37 0 -380 c0 -354 1 -383
19 -412 27 -44 52 -56 129 -62 82 -6 134 14 163 61 15 26 20 56 22 160 l4 128
-48 -3 -48 -3 -2 -105 c0 -58 -2 -110 -2 -117 -6 -44 -94 -59 -128 -22 -18 20
-19 41 -19 381 l0 360 24 19 c18 15 33 18 60 14 54 -8 61 -25 61 -147 0 -59 3
-108 8 -109 34 -5 69 -4 78 3 6 5 10 47 9 113 -2 118 -19 171 -64 198 -27 16
-109 27 -146 20z"/>
<path d="M11004 4469 c-40 -11 -74 -49 -85 -96 -5 -21 -8 -92 -8 -158 0 -179
21 -223 118 -251 120 -35 122 -37 123 -201 2 -135 -10 -163 -70 -163 -20 0
-42 4 -49 8 -23 14 -33 64 -33 163 l0 99 -46 0 -46 0 4 -127 c5 -145 18 -180
76 -207 44 -21 138 -21 182 2 61 30 75 74 74 237 0 196 -22 235 -151 265 -80
18 -86 30 -90 170 -3 129 4 162 38 180 30 16 86 4 100 -22 7 -13 11 -65 11
-122 0 -56 4 -103 9 -106 5 -4 25 -4 44 -2 l35 4 0 112 c0 122 -13 163 -61
199 -30 22 -123 30 -175 16z"/>
<path d="M1570 4000 l0 -470 48 0 47 0 0 215 -1 215 73 0 72 0 0 -212 -1 -213
46 -3 46 -3 0 470 0 471 -45 0 -45 0 0 -62 c-1 -35 -1 -129 -1 -210 0 -82 -3
-149 -7 -149 -4 -1 -37 -3 -73 -4 l-66 -3 1 214 1 214 -47 0 -48 0 0 -470z"/>
<path d="M2267 4463 c-3 -5 -8 -37 -12 -73 -3 -36 -8 -76 -10 -90 -2 -14 -6
-61 -10 -105 -4 -44 -8 -82 -10 -85 -2 -3 -6 -40 -9 -82 -4 -42 -8 -85 -10
-95 -2 -10 -7 -47 -10 -83 -13 -118 -25 -230 -32 -282 l-5 -38 49 0 50 0 8 98
c4 53 8 100 10 105 1 4 2 18 3 32 1 24 4 25 65 25 75 0 71 5 81 -115 4 -44 9
-89 10 -100 1 -11 3 -26 4 -32 1 -8 17 -13 46 -13 53 0 51 -11 30 170 -8 69
-17 150 -20 180 -7 66 -15 134 -20 175 -2 17 -7 62 -10 100 -4 39 -9 79 -11
90 -2 10 -6 50 -10 89 -3 38 -8 76 -9 85 -2 9 -4 24 -4 34 -1 15 -12 17 -80
17 -44 0 -82 -3 -84 -7z m97 -109 c2 -10 7 -62 11 -114 4 -52 8 -111 10 -130
2 -19 7 -73 10 -120 4 -47 9 -92 10 -101 3 -12 -8 -15 -53 -15 l-57 1 1 40 c0
22 4 76 8 120 13 149 15 180 22 260 3 44 8 84 11 88 7 12 23 -5 27 -29z"/>
<path d="M2799 4468 c-1 -2 -2 -213 -3 -470 l-1 -468 142 0 143 0 0 40 0 40
-97 0 -98 0 0 428 0 427 -42 3 c-24 2 -44 2 -44 0z"/>
<path d="M3330 4000 l0 -471 142 3 c157 3 144 -3 139 63 -1 12 -19 15 -96 15
l-95 0 0 430 0 430 -45 0 -45 0 0 -470z"/>
<path d="M4900 4000 l0 -471 142 3 142 3 -1 28 c-1 15 -1 32 -2 37 -1 6 -40
10 -96 10 l-95 0 0 430 0 430 -45 0 -45 0 0 -470z"/>
<path d="M6649 4468 c-1 -2 -2 -213 -3 -470 l-1 -468 142 0 143 0 0 40 0 40
-95 0 -95 0 0 175 0 175 90 0 90 0 0 39 c0 22 -5 41 -12 43 -7 2 -47 3 -90 3
l-76 -2 -4 51 c-1 28 -1 105 2 171 l5 120 90 0 90 0 3 43 3 42 -140 0 c-78 0
-142 -1 -142 -2z"/>
<path d="M7140 4427 l0 -43 60 1 60 1 0 -428 0 -428 49 0 48 0 -1 421 c-1 271
3 423 9 427 6 4 33 7 60 7 l50 0 0 40 0 40 -167 3 -168 2 0 -43z"/>
<path d="M8710 4001 l0 -471 45 0 45 0 0 176 0 175 32 -3 32 -3 36 -145 c20
-80 40 -157 44 -172 6 -26 10 -28 55 -28 l49 0 -14 58 c-7 31 -29 113 -47 182
l-34 125 28 23 c41 33 49 77 49 264 0 259 -15 279 -207 286 l-113 5 0 -472z
m210 363 c12 -12 15 -47 15 -189 0 -202 -2 -207 -82 -209 l-48 -1 -3 200 c-1
110 0 205 2 212 7 16 96 6 116 -13z"/>
<path d="M9359 4453 c0 -10 -2 -27 -4 -38 -2 -11 -9 -67 -15 -125 -13 -137
-18 -178 -30 -275 -5 -44 -12 -109 -16 -145 -4 -36 -14 -127 -23 -202 l-17
-138 48 0 c31 0 49 4 50 13 0 6 2 17 3 22 1 6 5 51 9 100 11 131 7 125 82 125
59 0 64 -2 65 -22 0 -13 2 -34 4 -48 7 -46 15 -135 15 -162 0 -27 2 -28 51
-28 l51 0 -6 43 c-9 70 -14 115 -31 267 -9 80 -18 161 -20 180 -2 19 -9 82
-15 140 -6 58 -13 116 -15 130 -7 50 -19 165 -17 173 1 4 -36 7 -83 7 -74 0
-85 -2 -86 -17z m94 -70 c3 -5 8 -42 11 -83 4 -41 9 -93 11 -115 10 -104 18
-215 19 -260 l1 -50 -52 0 c-47 -1 -56 3 -55 25 0 10 14 156 17 180 1 14 6 72
10 130 4 58 9 116 10 130 2 14 4 31 4 38 1 13 17 16 24 5z"/>
<path d="M9890 4000 l0 -470 45 0 45 0 1 73 c0 39 0 136 -1 215 l-1 142 89 0
c49 0 91 2 93 4 3 3 3 22 1 43 l-4 38 -89 0 -90 0 2 159 c0 87 3 164 5 170 3
8 32 12 87 11 45 -1 87 0 93 2 10 4 11 32 5 76 -1 4 -64 7 -141 7 l-140 0 0
-470z"/>
<path d="M10349 4463 c-7 -60 -6 -73 4 -74 7 -1 35 -2 62 -3 l50 -1 2 -415 c1
-228 2 -421 2 -427 1 -9 17 -13 46 -13 l45 0 2 427 3 428 55 0 c59 -1 71 12
62 63 -4 22 -6 22 -168 22 -90 0 -164 -3 -165 -7z"/>
</g>
</svg>
